<svg width="1001" height="193" viewBox="0 0 1001 193" fill="none" xmlns="http://www.w3.org/2000/svg">
<path d="M130.351 0.324463C145.938 0.324461 153.731 0.32446 160.708 2.5914C166.882 4.59719 172.564 7.87808 177.388 12.2213C182.84 17.13 186.736 23.8795 194.53 37.3784L207.097 59.1452C214.891 72.6441 218.787 79.3936 220.313 86.5692C221.662 92.9183 221.662 99.4801 220.313 105.829C218.787 113.005 214.891 119.754 207.097 133.253L194.53 155.02C186.736 168.519 182.84 175.268 177.388 180.177C172.564 184.52 166.882 187.801 160.708 189.807C153.731 192.074 145.938 192.074 130.351 192.074H105.216C89.6292 192.074 81.8357 192.074 74.8588 189.807C68.6856 187.801 63.0029 184.52 58.1792 180.177C52.7276 175.268 48.8308 168.519 41.0372 155.02L28.4701 133.253C20.6765 119.754 16.7797 113.005 15.2545 105.829C13.9049 99.48 13.9049 92.9183 15.2544 86.5692C16.7797 79.3936 20.6765 72.6441 28.4701 59.1452L41.0372 37.3784C48.8308 23.8795 52.7275 17.13 58.1792 12.2213C63.0029 7.87809 68.6856 4.5972 74.8587 2.59141C81.8356 0.324471 89.6292 0.32447 105.216 0.324468L130.351 0.324463Z" fill="#FFC72C"/>
<path d="M54.1943 178.371C56.9351 183.141 58.3054 185.526 60.1659 187.321C62.3066 189.386 64.9204 190.895 67.7788 191.716C70.263 192.43 73.0141 192.424 78.5154 192.413C85.2863 192.399 90.064 192.389 93.9085 192.076C95.5903 191.939 96.4312 191.87 96.8321 191.391C97.1553 191.004 97.2617 190.378 97.0842 189.906C96.8639 189.322 96.0289 188.951 94.359 188.21C78.6828 181.252 63.7864 172.655 49.9193 162.563C48.4416 161.487 47.7027 160.95 47.0862 161.051C46.5893 161.134 46.0999 161.539 45.9271 162.012C45.7128 162.599 46.0743 163.362 46.7974 164.888C48.4479 168.37 50.8261 172.509 54.1943 178.371Z" fill="url(#paint0_linear_2738_27357)"/>
<path d="M44.5786 140.541C44.3554 140.351 44.2569 140.052 44.3274 139.768C45.6303 134.52 48.5054 129.54 54.2555 119.58C54.4318 119.275 54.8415 119.204 55.111 119.431C77.0593 137.924 102.109 152.385 129.099 162.145C129.432 162.266 129.576 162.658 129.399 162.964C123.649 172.924 120.774 177.904 116.88 181.656C116.675 181.853 116.376 181.916 116.109 181.82C89.9619 172.506 65.7248 158.519 44.5786 140.541Z" fill="url(#paint1_linear_2738_27357)"/>
<path d="M62.7252 104.95C62.3689 105.535 62.1908 105.828 62.1513 106.146C62.1173 106.421 62.165 106.717 62.2833 106.968C62.4206 107.258 62.687 107.485 63.2197 107.938C84.4287 126 108.754 140.043 135.001 149.378C135.66 149.612 135.99 149.729 136.31 149.703C136.586 149.68 136.866 149.573 137.087 149.406C137.343 149.213 137.508 148.912 137.836 148.311C138.545 147.014 138.979 146.074 139.245 145.093C139.615 143.727 139.746 142.307 139.632 140.896C139.504 139.304 138.95 137.737 137.843 134.602L129.438 110.806C126.741 103.169 125.392 99.3497 122.906 96.7553C120.714 94.4687 117.917 92.8536 114.841 92.0992C111.351 91.2432 107.369 91.9845 99.406 93.4671L74.5961 98.0864C71.3277 98.6949 69.6936 98.9992 68.2506 99.6838C66.9719 100.29 65.8079 101.114 64.81 102.117C64.0924 102.839 63.4946 103.686 62.7252 104.95Z" fill="url(#paint2_linear_2738_27357)"/>
<path d="M169.86 51.2278C163.62 62.035 149.801 65.7378 138.994 59.4983C128.187 53.2588 124.484 39.4397 130.723 28.6325C136.963 17.8253 150.782 14.1225 161.589 20.362C172.396 26.6016 176.099 40.4207 169.86 51.2278Z" fill="url(#paint3_linear_2738_27357)"/>
<path d="M139.434 89.7128L161.358 157.234C169.457 182.179 201.048 189.767 219.593 171.222C235.921 154.894 232.318 127.522 212.321 115.976L150.842 80.4772C144.604 76.8753 137.21 82.8617 139.434 89.7128Z" fill="url(#paint4_linear_2738_27357)"/>
<path d="M112.585 74.2087L43.1483 88.9832C17.496 94.4413 -4.87067 70.8766 1.91727 45.5437C7.89367 23.2395 33.3998 12.6739 53.3977 24.2185L114.879 59.7114C121.118 63.3127 119.631 72.7096 112.585 74.2087Z" fill="url(#paint5_linear_2738_27357)"/>
<path d="M712.446 116.934C714.756 125.284 721.019 129.459 731.235 129.459C737.808 129.459 742.783 127.239 746.159 122.797L760.017 130.792C753.443 140.297 743.76 145.05 730.968 145.05C719.953 145.05 711.114 141.719 704.451 135.056C697.789 128.393 694.457 119.999 694.457 109.872C694.457 99.8333 697.744 91.4829 704.318 84.8203C710.892 78.069 719.331 74.6933 729.636 74.6933C739.407 74.6933 747.447 78.069 753.754 84.8203C760.15 91.5717 763.348 99.9221 763.348 109.872C763.348 112.092 763.126 114.447 762.682 116.934H712.446ZM712.18 103.609H746.159C745.182 99.0782 743.138 95.7025 740.029 93.4817C737.009 91.2608 733.544 90.1504 729.636 90.1504C725.016 90.1504 721.196 91.3496 718.176 93.7482C715.156 96.0579 713.157 99.3447 712.18 103.609Z" fill="white"/>
<path d="M665.545 76.5588H682.335V139.986C682.335 150.291 678.915 158.153 672.074 163.572C665.323 168.991 657.15 171.7 647.556 171.7C640.361 171.7 634.009 170.323 628.501 167.569C623.082 164.815 618.907 160.773 615.976 155.443L630.633 147.049C634.009 153.267 639.828 156.376 648.089 156.376C653.508 156.376 657.772 154.955 660.881 152.112C663.99 149.269 665.545 145.228 665.545 139.986V132.791C660.481 139.542 653.375 142.918 644.225 142.918C634.808 142.918 626.902 139.631 620.506 133.057C614.199 126.395 611.045 118.311 611.045 108.806C611.045 99.3891 614.243 91.3497 620.639 84.6871C627.035 78.0245 634.897 74.6933 644.225 74.6933C653.375 74.6933 660.481 78.069 665.545 84.8203V76.5588ZM633.431 121.997C636.985 125.373 641.471 127.061 646.89 127.061C652.309 127.061 656.75 125.373 660.215 121.997C663.768 118.533 665.545 114.136 665.545 108.806C665.545 103.564 663.768 99.2559 660.215 95.8802C656.75 92.4157 652.309 90.6834 646.89 90.6834C641.471 90.6834 636.985 92.4157 633.431 95.8802C629.967 99.2559 628.235 103.564 628.235 108.806C628.235 114.136 629.967 118.533 633.431 121.997Z" fill="white"/>
<path d="M574.648 74.6933C581.932 74.6933 587.929 77.1362 592.637 82.0221C597.434 86.9079 599.832 93.6593 599.832 102.276V143.184H582.643V104.408C582.643 99.9666 581.444 96.5909 579.045 94.2812C576.647 91.8827 573.449 90.6834 569.451 90.6834C565.009 90.6834 561.456 92.0603 558.791 94.8142C556.126 97.568 554.793 101.699 554.793 107.207V143.184H537.604V76.5588H554.793V84.0208C558.969 77.8025 565.587 74.6933 574.648 74.6933Z" fill="white"/>
<path d="M504.827 76.5588H522.017V143.184H504.827V135.323C499.675 141.807 492.435 145.05 483.107 145.05C474.224 145.05 466.584 141.674 460.188 134.923C453.881 128.083 450.727 119.732 450.727 109.872C450.727 100.011 453.881 91.705 460.188 84.9536C466.584 78.1134 474.224 74.6933 483.107 74.6933C492.435 74.6933 499.675 77.9357 504.827 84.4206V76.5588ZM473.114 123.463C476.578 126.928 480.975 128.66 486.305 128.66C491.636 128.66 496.033 126.928 499.497 123.463C503.051 119.91 504.827 115.379 504.827 109.872C504.827 104.364 503.051 99.8777 499.497 96.4132C496.033 92.8598 491.636 91.0831 486.305 91.0831C480.975 91.0831 476.578 92.8598 473.114 96.4132C469.649 99.8777 467.917 104.364 467.917 109.872C467.917 115.379 469.649 119.91 473.114 123.463Z" fill="white"/>
<path d="M426.357 88.0184C427.956 83.7543 430.577 80.5563 434.219 78.4243C437.95 76.2923 442.081 75.2263 446.611 75.2263V94.4144C441.37 93.7926 436.662 94.8586 432.487 97.6125C428.4 100.366 426.357 104.941 426.357 111.337V143.184H409.168V76.5588H426.357V88.0184Z" fill="white"/>
<path d="M396.007 93.0819H380.95V120.798C380.95 123.108 381.527 124.796 382.682 125.862C383.837 126.928 385.525 127.55 387.745 127.727C389.966 127.816 392.72 127.772 396.007 127.594V143.184C384.192 144.517 375.842 143.406 370.956 139.853C366.159 136.3 363.76 129.948 363.76 120.798V93.0819H352.167V76.5588H363.76V63.1004L380.95 57.9036V76.5588H396.007V93.0819Z" fill="white"/>
<path d="M314.809 145.05C305.57 145.05 297.797 143.007 291.49 138.92C285.183 134.745 280.741 129.104 278.165 121.997L293.889 112.803C297.531 122.308 304.682 127.061 315.342 127.061C320.495 127.061 324.27 126.128 326.668 124.263C329.067 122.397 330.266 120.043 330.266 117.2C330.266 113.914 328.8 111.382 325.869 109.605C322.937 107.74 317.696 105.741 310.145 103.609C305.97 102.365 302.417 101.121 299.485 99.8777C296.643 98.634 293.755 96.9906 290.824 94.9474C287.981 92.8154 285.805 90.1504 284.295 86.9524C282.784 83.7543 282.029 80.0233 282.029 75.7593C282.029 67.32 285.005 60.6131 290.957 55.6383C296.998 50.5748 304.238 48.043 312.677 48.043C320.228 48.043 326.846 49.9085 332.532 53.6396C338.306 57.2818 342.792 62.3897 345.99 68.9635L330.533 77.8913C326.802 69.8962 320.85 65.8987 312.677 65.8987C308.857 65.8987 305.837 66.787 303.616 68.5637C301.484 70.2516 300.418 72.4724 300.418 75.2263C300.418 78.1578 301.617 80.5563 304.016 82.4218C306.503 84.1985 311.211 86.1529 318.14 88.2849C320.983 89.1732 323.115 89.8839 324.536 90.4169C326.047 90.8611 328.045 91.6161 330.533 92.6822C333.109 93.6593 335.063 94.5921 336.396 95.4804C337.817 96.3688 339.416 97.568 341.193 99.0782C342.97 100.588 344.302 102.143 345.19 103.742C346.168 105.341 346.967 107.295 347.589 109.605C348.3 111.826 348.655 114.269 348.655 116.934C348.655 125.551 345.501 132.391 339.194 137.455C332.976 142.518 324.847 145.05 314.809 145.05Z" fill="white"/>
<path d="M949.786 115.061C952.095 123.411 958.358 127.586 968.574 127.586C975.148 127.586 980.123 125.365 983.498 120.924L997.356 128.919C990.783 138.424 981.1 143.177 968.308 143.177C957.292 143.177 948.453 139.845 941.791 133.183C935.128 126.52 931.797 118.126 931.797 107.998C931.797 97.9602 935.084 89.6098 941.657 82.9472C948.231 76.1958 956.67 72.8201 966.975 72.8201C976.747 72.8201 984.786 76.1958 991.094 82.9472C997.49 89.6986 1000.69 98.049 1000.69 107.998C1000.69 110.219 1000.47 112.573 1000.02 115.061H949.786ZM949.519 101.736H983.498C982.521 97.2051 980.478 93.8294 977.369 91.6085C974.348 89.3877 970.884 88.2773 966.975 88.2773C962.356 88.2773 958.536 89.4765 955.516 91.875C952.495 94.1847 950.496 97.4716 949.519 101.736Z" fill="white"/>
<path d="M872.88 115.061C875.19 123.411 881.453 127.586 891.668 127.586C898.242 127.586 903.217 125.365 906.593 120.924L920.451 128.919C913.877 138.424 904.194 143.177 891.402 143.177C880.386 143.177 871.547 139.845 864.885 133.183C858.222 126.52 854.891 118.126 854.891 107.998C854.891 97.9602 858.178 89.6098 864.752 82.9472C871.325 76.1958 879.765 72.8201 890.069 72.8201C899.841 72.8201 907.881 76.1958 914.188 82.9472C920.584 89.6986 923.782 98.049 923.782 107.998C923.782 110.219 923.56 112.573 923.116 115.061H872.88ZM872.613 101.736H906.593C905.615 97.2051 903.572 93.8294 900.463 91.6085C897.443 89.3877 893.978 88.2773 890.069 88.2773C885.45 88.2773 881.63 89.4765 878.61 91.875C875.589 94.1847 873.591 97.4716 872.613 101.736Z" fill="white"/>
<path d="M833.8 92.941C841.973 97.6493 846.059 104.756 846.059 114.261C846.059 122.167 843.261 128.652 837.664 133.716C832.068 138.779 825.183 141.311 817.01 141.311H777.435V48.0354H814.212C822.207 48.0354 828.914 50.5228 834.333 55.4975C839.841 60.3833 842.594 66.6461 842.594 74.2859C842.594 82.0144 839.663 88.2328 833.8 92.941ZM814.212 65.2248H795.823V85.7455H814.212C817.055 85.7455 819.409 84.7683 821.274 82.814C823.229 80.8596 824.206 78.4167 824.206 75.4851C824.206 72.5536 823.273 70.1107 821.408 68.1563C819.542 66.202 817.143 65.2248 814.212 65.2248ZM817.01 124.122C820.119 124.122 822.696 123.1 824.739 121.057C826.782 118.925 827.804 116.26 827.804 113.062C827.804 109.953 826.782 107.377 824.739 105.333C822.696 103.201 820.119 102.135 817.01 102.135H795.823V124.122H817.01Z" fill="white"/>
<defs>
<linearGradient id="paint0_linear_2738_27357" x1="174.739" y1="-11.633" x2="26.4054" y2="267.892" gradientUnits="userSpaceOnUse">
<stop stop-color="#001535"/>
<stop offset="1" stop-color="#023A8D"/>
</linearGradient>
<linearGradient id="paint1_linear_2738_27357" x1="174.739" y1="-11.633" x2="26.4054" y2="267.892" gradientUnits="userSpaceOnUse">
<stop stop-color="#001535"/>
<stop offset="1" stop-color="#023A8D"/>
</linearGradient>
<linearGradient id="paint2_linear_2738_27357" x1="174.739" y1="-11.633" x2="26.4054" y2="267.892" gradientUnits="userSpaceOnUse">
<stop stop-color="#001535"/>
<stop offset="1" stop-color="#023A8D"/>
</linearGradient>
<linearGradient id="paint3_linear_2738_27357" x1="174.739" y1="-11.633" x2="26.4054" y2="267.892" gradientUnits="userSpaceOnUse">
<stop stop-color="#001535"/>
<stop offset="1" stop-color="#023A8D"/>
</linearGradient>
<linearGradient id="paint4_linear_2738_27357" x1="174.739" y1="-11.633" x2="26.4054" y2="267.892" gradientUnits="userSpaceOnUse">
<stop stop-color="#001535"/>
<stop offset="1" stop-color="#023A8D"/>
</linearGradient>
<linearGradient id="paint5_linear_2738_27357" x1="174.739" y1="-11.633" x2="26.4054" y2="267.892" gradientUnits="userSpaceOnUse">
<stop stop-color="#001535"/>
<stop offset="1" stop-color="#023A8D"/>
</linearGradient>
</defs>
</svg>
