<svg width="1001" height="283" viewBox="0 0 1001 283" fill="none" xmlns="http://www.w3.org/2000/svg">
<path d="M67.8485 260.681C36.7705 260.681 32.2068 249.643 30.1855 244.488C27.9679 238.834 21.9137 222.68 63.8563 185.185C10.5438 192.007 5.03563 179.727 2.4079 173.865C-12.7521 139.755 51.6273 96.5493 130.914 47.7848L141.93 41.0133L154.715 61.6309L143.648 68.4529C119.089 83.5623 85.434 104.281 59.7126 124.393C30.9592 146.88 25.6532 158.149 24.7436 162.243C31.9699 163.809 54.6593 164.213 104.131 153.399C156.383 115.752 263.564 51.7769 295.956 61.5298C301.969 63.349 306.416 67.3917 308.488 72.8998C310.155 77.3972 311.166 84.4719 306.567 92.9109C286.455 129.901 163.407 164.82 114.39 175.988C68.1011 209.946 55.0635 228.744 53.3454 234.758C56.529 236.122 68.4549 239.154 104.131 232.383C187.713 216.515 297.977 169.064 306.567 153.298C312.823 141.818 326.693 143.422 330.015 152.136C332.289 163.001 327.185 176.442 275.287 201.001C244.563 215.555 204.743 230.462 166.035 241.933C118.432 256.032 87.8091 260.782 68.0001 260.782L67.8485 260.681ZM282.918 84.7751C266.141 87.3523 225.259 105.645 179.072 133.135C233.496 115.6 272.609 96.1451 282.918 84.7751Z" fill="#011A40"/>
<path d="M179.928 40.7616C199.535 40.7616 217.98 40.7617 226.772 44.0463C234.554 46.9267 241.68 51.6768 247.744 57.9429C256.334 66.8368 262.954 79.2174 270.686 94.0237C282.106 115.803 298.732 148.044 292.213 173.917C289.434 184.983 284.128 195.09 278.923 204.995C274.678 213.08 270.484 219.397 263.763 227.633C241.225 255.326 214.19 264.775 186.851 277.004C172.348 283.473 155.622 283.877 141.068 277.51C113.628 265.533 86.9469 255.376 64.409 227.684C58.4461 220.357 53.696 213.535 49.2491 204.995C44.0441 195.09 38.7381 184.933 35.9588 173.917C29.2379 147.235 45.5601 116.359 57.486 94.0237C65.3692 79.3185 71.7363 66.9379 80.4281 57.9935C86.4921 51.7274 93.6678 46.9772 101.399 44.0968C110.192 40.8122 128.637 40.8122 148.244 40.8122H179.878L179.928 40.7616Z" fill="#FFC72C"/>
<path d="M135.065 27.8738L161.747 35.3528C164.476 36.1108 166.648 33.1293 165.183 30.7542L150.377 7.35736C145.576 -0.27316 134.813 -1.23329 128.698 5.38656C121.775 12.916 125.211 25.0945 135.065 27.8738ZM173.521 35.0496C170.893 30.9564 172.157 25.4988 176.25 22.8711C180.343 20.2433 185.801 21.5067 188.428 25.5998C191.056 29.693 189.793 35.1506 185.699 37.7783C181.606 40.4061 176.149 39.1427 173.521 35.0496ZM168.215 45.611L163.566 72.9495C161.848 83.0561 171.399 91.3941 181.152 88.3116C189.742 85.6333 193.482 75.5267 188.63 67.8961L173.824 44.4993C172.308 42.1242 168.67 42.8317 168.215 45.611ZM162.151 45.8637C162.555 43.5897 161.14 41.3662 158.917 40.7598L148.507 37.9805C147.496 37.7278 146.385 37.8794 145.526 38.4353C113.74 58.598 81.1967 77.8512 51.0284 100.44C36.0705 111.658 22.2244 123.432 12.9263 134.701C8.27727 140.31 4.28514 146.374 2.01115 152.691C-0.313382 159.159 -1.02085 166.638 2.21328 173.915C4.89154 179.979 11.9662 182.657 18.0302 179.979C24.0942 177.301 26.7724 170.226 24.0942 164.162C24.0942 164.061 24.2415 163.365 25.1006 160.888C26.0607 158.21 28.1831 154.572 31.9225 150.074C39.4015 141.029 50.8263 130.507 65.3798 119.592C95.0934 97.3065 127.283 78.7608 158.513 58.9518C159.422 58.3959 160.029 57.4863 160.231 56.4251L162.151 45.8131V45.8637ZM307.889 73C306.529 66.2669 299.804 62.8428 294.599 61.4784C289.798 60.2151 284.593 60.4172 279.792 61.1247C270.09 62.5396 257.911 66.5317 244.773 71.9388C218.243 82.9045 184.638 100.995 152.246 121.158C119.804 141.321 87.9682 163.909 64.9756 184.173C53.5551 194.229 43.9032 204.134 37.4855 213.179C34.3019 217.677 31.5731 222.477 29.956 227.328C28.3895 232.18 27.682 238.092 29.956 243.954C32.3816 250.119 39.2151 252.94 45.4697 250.776C51.9713 248.526 52.2543 237.718 53.1813 234.937C53.7371 233.269 55.0004 230.692 57.426 227.256C62.2772 220.434 69.9278 211.764 80.7925 202.163C102.421 183.112 133.044 161.282 164.829 141.523C196.615 121.765 229.006 104.432 253.869 94.1229C266.452 88.918 276.407 85.8354 283.128 84.8753C284.947 84.6226 286.261 84.5721 287.12 84.5721C290.253 88.5642 295.71 90.2824 300.713 88.4632C308.004 85.7958 309.207 79.5256 307.889 73ZM330.009 152.088C327.735 142.992 321.937 138.137 313.7 135.004C306.322 132.174 297.984 132.427 290.303 133.741C274.84 136.369 256.294 144.403 238.608 153.55C202.982 172.045 166.598 197.767 157.249 205.144C152.044 209.238 151.185 216.767 155.278 221.972C159.372 227.177 166.901 228.036 172.106 223.943C180.444 217.373 215.565 192.511 249.675 174.824C266.906 165.88 282.723 159.311 294.346 157.34C300.208 156.329 303.543 156.734 305.11 157.34C305.817 157.643 306.272 157.795 306.727 159.513C308.293 165.931 314.812 169.872 321.23 168.255C327.647 166.689 331.627 158.505 330.009 152.088Z" fill="url(#paint0_linear_492_30786)"/>
<path d="M936.239 185.799C939.133 196.263 946.981 201.495 959.782 201.495C968.02 201.495 974.253 198.712 978.483 193.146L995.849 203.165C987.611 215.075 975.478 221.031 959.448 221.031C945.645 221.031 934.569 216.857 926.22 208.508C917.871 200.159 913.697 189.64 913.697 176.949C913.697 164.371 917.816 153.907 926.053 145.558C934.291 137.098 944.866 132.868 957.779 132.868C970.023 132.868 980.098 137.098 988.001 145.558C996.016 154.018 1000.02 164.482 1000.02 176.949C1000.02 179.732 999.745 182.682 999.188 185.799H936.239ZM935.905 169.102H978.483C977.259 163.424 974.699 159.194 970.803 156.411C967.018 153.628 962.676 152.237 957.779 152.237C951.99 152.237 947.203 153.74 943.419 156.745C939.634 159.64 937.129 163.758 935.905 169.102Z" fill="white"/>
<path d="M887.203 135.205H910.913L879.188 218.693H854.642L822.917 135.205H846.628L866.832 193.647L887.203 135.205Z" fill="white"/>
<path d="M801.699 128.359C798.137 128.359 795.02 127.079 792.349 124.519C789.788 121.847 788.508 118.73 788.508 115.168C788.508 111.606 789.788 108.489 792.349 105.817C795.02 103.146 798.137 101.81 801.699 101.81C805.373 101.81 808.49 103.146 811.05 105.817C813.722 108.489 815.057 111.606 815.057 115.168C815.057 118.73 813.722 121.847 811.05 124.519C808.49 127.079 805.373 128.359 801.699 128.359ZM791.013 218.693V135.205H812.553V218.693H791.013Z" fill="white"/>
<path d="M747.426 101.81H770.301V218.693H747.426V170.27H704.012V218.693H680.969V101.81H704.012V148.229H747.426V101.81Z" fill="white"/>
<path d="M601.146 185.799C604.04 196.263 611.888 201.495 624.689 201.495C632.927 201.495 639.161 198.712 643.391 193.146L660.756 203.165C652.519 215.075 640.385 221.031 624.356 221.031C610.552 221.031 599.476 216.857 591.127 208.508C582.779 200.159 578.604 189.64 578.604 176.949C578.604 164.371 582.723 153.907 590.96 145.558C599.198 137.098 609.773 132.868 622.686 132.868C634.931 132.868 645.005 137.098 652.908 145.558C660.923 154.018 664.931 164.482 664.931 176.949C664.931 179.732 664.652 182.682 664.096 185.799H601.146ZM600.812 169.102H643.391C642.166 163.424 639.606 159.194 635.71 156.411C631.925 153.628 627.584 152.237 622.686 152.237C616.897 152.237 612.111 153.74 608.326 156.745C604.541 159.64 602.036 163.758 600.812 169.102Z" fill="white"/>
<path d="M532.995 132.868C542.123 132.868 549.637 135.929 555.537 142.051C561.548 148.174 564.553 156.634 564.553 167.432V218.693H543.014V170.103C543.014 164.537 541.511 160.307 538.505 157.413C535.5 154.408 531.492 152.905 526.483 152.905C520.917 152.905 516.464 154.63 513.125 158.081C509.785 161.532 508.116 166.708 508.116 173.61V218.693H486.576V101.81H508.116V144.556C513.348 136.764 521.641 132.868 532.995 132.868Z" fill="white"/>
<path d="M474.714 101.81V123.851H443.156V218.693H420.113V123.851H388.722V101.81H474.714Z" fill="white"/>
<defs>
<linearGradient id="paint0_linear_492_30786" x1="50.6148" y1="177.818" x2="878.19" y2="-87.6907" gradientUnits="userSpaceOnUse">
<stop stop-color="#011A40"/>
<stop offset="0.155" stop-color="#023074"/>
<stop offset="0.26" stop-color="#011A40"/>
</linearGradient>
</defs>
</svg>
