<svg width="243" height="70" viewBox="0 0 243 70" fill="none" xmlns="http://www.w3.org/2000/svg">
<path d="M79.7451 45.4197C77.6651 45.4197 75.9151 44.9597 74.4951 44.0397C73.0751 43.0997 72.0751 41.8297 71.4951 40.2297L75.0351 38.1597C75.8551 40.2997 77.4651 41.3697 79.8651 41.3697C81.0251 41.3697 81.8751 41.1597 82.4151 40.7397C82.9551 40.3197 83.2251 39.7897 83.2251 39.1497C83.2251 38.4097 82.8951 37.8397 82.2351 37.4397C81.5751 37.0197 80.3951 36.5697 78.6951 36.0897C77.7551 35.8097 76.9551 35.5297 76.2951 35.2497C75.6551 34.9697 75.0051 34.5997 74.3451 34.1397C73.7051 33.6597 73.2151 33.0597 72.8751 32.3397C72.5351 31.6197 72.3651 30.7797 72.3651 29.8197C72.3651 27.9197 73.0351 26.4097 74.3751 25.2897C75.7351 24.1497 77.3651 23.5797 79.2651 23.5797C80.9651 23.5797 82.4551 23.9997 83.7351 24.8397C85.0351 25.6597 86.0451 26.8097 86.7651 28.2897L83.2851 30.2997C82.4451 28.4997 81.1051 27.5997 79.2651 27.5997C78.4051 27.5997 77.7251 27.7997 77.2251 28.1997C76.7451 28.5797 76.5051 29.0797 76.5051 29.6997C76.5051 30.3597 76.7751 30.8997 77.3151 31.3197C77.8751 31.7197 78.9351 32.1597 80.4951 32.6397C81.1351 32.8397 81.6151 32.9997 81.9351 33.1197C82.2751 33.2197 82.7251 33.3897 83.2851 33.6297C83.8651 33.8497 84.3051 34.0597 84.6051 34.2597C84.9251 34.4597 85.2851 34.7297 85.6851 35.0697C86.0851 35.4097 86.3851 35.7597 86.5851 36.1197C86.8051 36.4797 86.9851 36.9197 87.1251 37.4397C87.2851 37.9397 87.3651 38.4897 87.3651 39.0897C87.3651 41.0297 86.6551 42.5697 85.2351 43.7097C83.8351 44.8497 82.0051 45.4197 79.7451 45.4197Z" fill="white"/>
<path d="M97.6509 33.7197H94.2609V39.9597C94.2609 40.4797 94.3909 40.8597 94.6509 41.0997C94.9109 41.3397 95.2909 41.4797 95.7909 41.5197C96.2909 41.5397 96.9109 41.5297 97.6509 41.4897V44.9997C94.9909 45.2997 93.1109 45.0497 92.0109 44.2497C90.9309 43.4497 90.3909 42.0197 90.3909 39.9597V33.7197H87.7809V29.9997H90.3909V26.9697L94.2609 25.7997V29.9997H97.6509V33.7197Z" fill="white"/>
<path d="M104.109 32.5797C104.469 31.6197 105.059 30.8997 105.879 30.4197C106.719 29.9397 107.649 29.6997 108.669 29.6997V34.0197C107.489 33.8797 106.429 34.1197 105.489 34.7397C104.569 35.3597 104.109 36.3897 104.109 37.8297V44.9997H100.239V29.9997H104.109V32.5797Z" fill="white"/>
<path d="M121.401 29.9997H125.271V44.9997H121.401V43.2297C120.241 44.6897 118.611 45.4197 116.511 45.4197C114.511 45.4197 112.791 44.6597 111.351 43.1397C109.931 41.5997 109.221 39.7197 109.221 37.4997C109.221 35.2797 109.931 33.4097 111.351 31.8897C112.791 30.3497 114.511 29.5797 116.511 29.5797C118.611 29.5797 120.241 30.3097 121.401 31.7697V29.9997ZM114.261 40.5597C115.041 41.3397 116.031 41.7297 117.231 41.7297C118.431 41.7297 119.421 41.3397 120.201 40.5597C121.001 39.7597 121.401 38.7397 121.401 37.4997C121.401 36.2597 121.001 35.2497 120.201 34.4697C119.421 33.6697 118.431 33.2697 117.231 33.2697C116.031 33.2697 115.041 33.6697 114.261 34.4697C113.481 35.2497 113.091 36.2597 113.091 37.4997C113.091 38.7397 113.481 39.7597 114.261 40.5597Z" fill="white"/>
<path d="M136.745 29.5797C138.385 29.5797 139.735 30.1297 140.795 31.2297C141.875 32.3297 142.415 33.8497 142.415 35.7897V44.9997H138.545V36.2697C138.545 35.2697 138.275 34.5097 137.735 33.9897C137.195 33.4497 136.475 33.1797 135.575 33.1797C134.575 33.1797 133.775 33.4897 133.175 34.1097C132.575 34.7297 132.275 35.6597 132.275 36.8997V44.9997H128.405V29.9997H132.275V31.6797C133.215 30.2797 134.705 29.5797 136.745 29.5797Z" fill="white"/>
<path d="M156.834 29.9997H160.614V44.2797C160.614 46.5997 159.844 48.3697 158.304 49.5897C156.784 50.8097 154.944 51.4197 152.784 51.4197C151.164 51.4197 149.734 51.1097 148.494 50.4897C147.274 49.8697 146.334 48.9597 145.674 47.7597L148.974 45.8697C149.734 47.2697 151.044 47.9697 152.904 47.9697C154.124 47.9697 155.084 47.6497 155.784 47.0097C156.484 46.3697 156.834 45.4597 156.834 44.2797V42.6597C155.694 44.1797 154.094 44.9397 152.034 44.9397C149.914 44.9397 148.134 44.1997 146.694 42.7197C145.274 41.2197 144.564 39.3997 144.564 37.2597C144.564 35.1397 145.284 33.3297 146.724 31.8297C148.164 30.3297 149.934 29.5797 152.034 29.5797C154.094 29.5797 155.694 30.3397 156.834 31.8597V29.9997ZM149.604 40.2297C150.404 40.9897 151.414 41.3697 152.634 41.3697C153.854 41.3697 154.854 40.9897 155.634 40.2297C156.434 39.4497 156.834 38.4597 156.834 37.2597C156.834 36.0797 156.434 35.1097 155.634 34.3497C154.854 33.5697 153.854 33.1797 152.634 33.1797C151.414 33.1797 150.404 33.5697 149.604 34.3497C148.824 35.1097 148.434 36.0797 148.434 37.2597C148.434 38.4597 148.824 39.4497 149.604 40.2297Z" fill="white"/>
<path d="M167.019 39.0897C167.539 40.9697 168.949 41.9097 171.249 41.9097C172.729 41.9097 173.849 41.4097 174.609 40.4097L177.729 42.2097C176.249 44.3497 174.069 45.4197 171.189 45.4197C168.709 45.4197 166.719 44.6697 165.219 43.1697C163.719 41.6697 162.969 39.7797 162.969 37.4997C162.969 35.2397 163.709 33.3597 165.189 31.8597C166.669 30.3397 168.569 29.5797 170.889 29.5797C173.089 29.5797 174.899 30.3397 176.319 31.8597C177.759 33.3797 178.479 35.2597 178.479 37.4997C178.479 37.9997 178.429 38.5297 178.329 39.0897H167.019ZM166.959 36.0897H174.609C174.389 35.0697 173.929 34.3097 173.229 33.8097C172.549 33.3097 171.769 33.0597 170.889 33.0597C169.849 33.0597 168.989 33.3297 168.309 33.8697C167.629 34.3897 167.179 35.1297 166.959 36.0897Z" fill="white"/>
<path d="M193.675 34.1097C195.515 35.1697 196.435 36.7697 196.435 38.9097C196.435 40.6897 195.805 42.1497 194.545 43.2897C193.285 44.4297 191.735 44.9997 189.895 44.9997H180.985V23.9997H189.265C191.065 23.9997 192.575 24.5597 193.795 25.6797C195.035 26.7797 195.655 28.1897 195.655 29.9097C195.655 31.6497 194.995 33.0497 193.675 34.1097ZM189.265 27.8697H185.125V32.4897H189.265C189.905 32.4897 190.435 32.2697 190.855 31.8297C191.295 31.3897 191.515 30.8397 191.515 30.1797C191.515 29.5197 191.305 28.9697 190.885 28.5297C190.465 28.0897 189.925 27.8697 189.265 27.8697ZM189.895 41.1297C190.595 41.1297 191.175 40.8997 191.635 40.4397C192.095 39.9597 192.325 39.3597 192.325 38.6397C192.325 37.9397 192.095 37.3597 191.635 36.8997C191.175 36.4197 190.595 36.1797 189.895 36.1797H185.125V41.1297H189.895Z" fill="white"/>
<path d="M202.099 39.0897C202.619 40.9697 204.029 41.9097 206.329 41.9097C207.809 41.9097 208.929 41.4097 209.689 40.4097L212.809 42.2097C211.329 44.3497 209.149 45.4197 206.269 45.4197C203.789 45.4197 201.799 44.6697 200.299 43.1697C198.799 41.6697 198.049 39.7797 198.049 37.4997C198.049 35.2397 198.789 33.3597 200.269 31.8597C201.749 30.3397 203.649 29.5797 205.969 29.5797C208.169 29.5797 209.979 30.3397 211.399 31.8597C212.839 33.3797 213.559 35.2597 213.559 37.4997C213.559 37.9997 213.509 38.5297 213.409 39.0897H202.099ZM202.039 36.0897H209.689C209.469 35.0697 209.009 34.3097 208.309 33.8097C207.629 33.3097 206.849 33.0597 205.969 33.0597C204.929 33.0597 204.069 33.3297 203.389 33.8697C202.709 34.3897 202.259 35.1297 202.039 36.0897Z" fill="white"/>
<path d="M219.038 39.0897C219.558 40.9697 220.968 41.9097 223.268 41.9097C224.748 41.9097 225.868 41.4097 226.628 40.4097L229.748 42.2097C228.268 44.3497 226.088 45.4197 223.208 45.4197C220.728 45.4197 218.738 44.6697 217.238 43.1697C215.738 41.6697 214.988 39.7797 214.988 37.4997C214.988 35.2397 215.728 33.3597 217.208 31.8597C218.688 30.3397 220.588 29.5797 222.908 29.5797C225.108 29.5797 226.918 30.3397 228.338 31.8597C229.778 33.3797 230.498 35.2597 230.498 37.4997C230.498 37.9997 230.448 38.5297 230.348 39.0897H219.038ZM218.978 36.0897H226.628C226.408 35.0697 225.948 34.3097 225.248 33.8097C224.568 33.3097 223.788 33.0597 222.908 33.0597C221.868 33.0597 221.008 33.3297 220.328 33.8697C219.648 34.3897 219.198 35.1297 218.978 36.0897Z" fill="white"/>
<path fill-rule="evenodd" clip-rule="evenodd" d="M30.7446 60.2312C29.7669 60.303 28.6337 60.3052 27.3986 60.3076L27.2382 60.308C27.1595 60.3081 27.0765 60.3087 26.9896 60.3092C26.1135 60.3149 24.8447 60.3231 23.6263 59.9749C22.265 59.5859 21.0175 58.8705 19.9939 57.8889C19.0766 57.0091 18.4456 55.9057 18.0127 55.1489C17.9698 55.0738 17.9288 55.0021 17.8897 54.9344L17.8101 54.7967C17.2223 53.7797 16.6797 52.8409 16.26 51.9927C15.9127 51.4109 15.5358 50.7618 15.1276 50.0588L12.4564 45.4584C12.3608 45.2938 12.2658 45.1306 12.1715 44.9687C10.8045 42.6212 9.60215 40.5564 9.11389 38.2724C8.83919 36.9873 8.74075 35.6746 8.81859 34.3696C6.39022 31.4959 5.2316 27.4833 6.3528 23.3227C7.96959 17.323 13.6305 13.7929 19.3293 14.3115C19.4481 14.1958 19.5704 14.0814 19.6966 13.9684C21.2221 12.6026 23.0176 11.5724 24.966 10.9429C27.1883 10.225 29.5769 10.2278 32.3095 10.2312C32.4963 10.2314 32.6847 10.2316 32.8748 10.2316L38.1892 10.2316C38.3793 10.2316 38.5677 10.2314 38.7545 10.2312C41.487 10.2278 43.8757 10.225 46.098 10.9429C48.0464 11.5724 49.8419 12.6026 51.3674 13.9684C53.1089 15.5276 54.3048 17.5931 55.6674 19.9464C55.7608 20.1078 55.8551 20.2706 55.9503 20.4346L58.6076 25.011C58.7104 25.188 58.811 25.3613 58.9085 25.5294C58.9462 25.5945 58.9838 25.6594 59.0213 25.724C60.3085 27.9427 61.4678 29.941 61.9501 32.197C62.3782 34.1997 62.3782 36.2697 61.9501 38.2724C61.9166 38.4289 61.8803 38.5831 61.8414 38.7352C65.1423 43.4057 64.8809 50.0619 60.4749 54.443C57.4212 57.4793 53.3596 58.4832 49.6505 57.8227C48.5511 58.5461 47.3564 59.1199 46.098 59.5265C43.8757 60.2444 41.487 60.2415 38.7545 60.2382C38.5677 60.238 38.3793 60.2378 38.1892 60.2378H32.8512C32.0903 60.2378 31.3851 60.2378 30.7446 60.2312Z" fill="white"/>
<path d="M22.0831 52.5088C22.6626 53.5117 22.9524 54.0131 23.3458 54.3904C23.7984 54.8245 24.3511 55.1417 24.9555 55.3145C25.4807 55.4646 26.0624 55.4634 27.2256 55.461C28.6573 55.458 29.6675 55.4559 30.4804 55.39C30.5148 55.3872 30.5475 55.3846 30.5786 55.382C30.8695 55.3576 31.022 55.3371 31.0986 55.2461C31.1669 55.1648 31.1894 55.0331 31.1519 54.934C31.1053 54.8111 30.9287 54.7332 30.5757 54.5773C27.261 53.1145 24.1113 51.307 21.1792 49.1852C20.8667 48.9591 20.7105 48.8461 20.5802 48.8674C20.4751 48.8847 20.3716 48.97 20.3351 49.0694C20.2898 49.1928 20.3662 49.3532 20.5191 49.674C20.5203 49.6764 20.5215 49.6789 20.5226 49.6814C20.8715 50.4121 21.3734 51.2805 22.0831 52.5088Z" fill="#011635"/>
<path d="M20.0499 44.5553C20.0028 44.5154 19.9819 44.4526 19.9969 44.3928C20.2723 43.2893 20.8802 42.2424 22.0961 40.1485C22.1333 40.0843 22.22 40.0693 22.277 40.1171C26.9178 44.0051 32.2143 47.0455 37.9212 49.0974C37.9916 49.1227 38.022 49.2052 37.9846 49.2696C36.7688 51.3636 36.1608 52.4105 35.3375 53.1995C35.2943 53.2409 35.2311 53.254 35.1745 53.234C29.6459 51.2758 24.5212 48.3351 20.0499 44.5553Z" fill="#011635"/>
<path d="M23.8869 37.0725C23.8116 37.1955 23.7739 37.257 23.7656 37.324C23.7584 37.3818 23.7685 37.4441 23.7935 37.4968C23.8225 37.5578 23.8788 37.6055 23.9915 37.7008C28.476 41.4981 33.6193 44.4505 39.1691 46.4131C39.3085 46.4624 39.3782 46.487 39.4458 46.4815C39.5041 46.4767 39.5635 46.4542 39.6102 46.4192C39.6644 46.3785 39.6991 46.3153 39.7686 46.1889C39.9185 45.9163 40.0102 45.7186 40.0665 45.5122C40.1448 45.225 40.1725 44.9265 40.1484 44.6299C40.1212 44.2952 40.0041 43.9657 39.77 43.3066L37.9929 38.3038C37.4225 36.698 37.1373 35.8951 36.6116 35.3497C36.1483 34.8689 35.5568 34.5294 34.9064 34.3707C34.1685 34.1908 33.3266 34.3466 31.6428 34.6583L26.3969 35.6295C25.7059 35.7574 25.3603 35.8214 25.0552 35.9654C24.7849 36.0929 24.5387 36.266 24.3277 36.477C24.176 36.6287 24.0496 36.8067 23.8869 37.0725Z" fill="#011635"/>
<path d="M46.5397 25.7779C45.2204 28.05 42.2984 28.8285 40.0133 27.5167C37.7282 26.2048 36.9453 23.2995 38.2646 21.0273C39.5839 18.7552 42.5059 17.9767 44.791 19.2885C47.0761 20.6004 47.859 23.5057 46.5397 25.7779Z" fill="#011635"/>
<path d="M40.1065 33.869L44.742 48.0649C45.4144 50.124 46.8525 51.6206 48.5888 52.4429C51.2746 53.715 54.6738 53.3737 57.0554 51.0056C60.3105 47.769 59.8193 42.4683 56.2086 39.8383C55.9898 39.6789 55.7594 39.5293 55.5178 39.3906L42.5186 31.9273C41.1996 31.17 39.6361 32.4286 40.1065 33.869Z" fill="#011635"/>
<path d="M34.4294 30.6094L19.7475 33.7156C17.6181 34.1661 15.5957 33.6762 14.0114 32.5925C11.5603 30.9158 10.1577 27.8179 11.0295 24.5828C12.221 20.1613 17.0838 17.9339 21.1799 19.7286C21.4279 19.8373 21.6732 19.9607 21.9147 20.0993L34.9146 27.5615C36.2336 28.3186 35.9192 30.2942 34.4294 30.6094Z" fill="#011635"/>
<path fill-rule="evenodd" clip-rule="evenodd" d="M54.4142 27.4435L51.7569 22.8672C50.1091 20.0292 49.2851 18.6102 48.1324 17.5781C47.1125 16.665 45.9109 15.9752 44.6056 15.5535C43.1304 15.0769 41.4825 15.0769 38.1867 15.0769L32.8723 15.0769C29.5765 15.0769 27.9286 15.0769 26.4534 15.5535C25.1481 15.9752 23.9465 16.665 22.9266 17.5781C22.3091 18.131 21.7859 18.7949 21.1799 19.7286C21.4279 19.8373 21.6732 19.9607 21.9147 20.0993L34.9146 27.5615C36.2336 28.3186 35.9192 30.2942 34.4294 30.6094L19.7475 33.7156C17.6181 34.1661 15.5957 33.6762 14.0114 32.5925C13.9479 32.7989 13.8945 33.0032 13.8505 33.2092C13.5651 34.5441 13.5651 35.9236 13.8505 37.2585C14.173 38.7671 14.9969 40.1861 16.6448 43.0241L19.302 47.6005C19.7655 48.3987 20.1639 49.0847 20.5226 49.6814L20.5191 49.674C20.3662 49.3532 20.2898 49.1928 20.3351 49.0694C20.3716 48.97 20.4751 48.8847 20.5802 48.8674C20.7105 48.8461 20.8667 48.9591 21.1792 49.1852C24.1113 51.307 27.261 53.1145 30.5757 54.5773C30.9287 54.7332 31.1053 54.8111 31.1519 54.934C31.1894 55.0331 31.1669 55.1648 31.0986 55.2461C31.022 55.3371 30.8695 55.3576 30.5786 55.382C31.2464 55.3908 32.0018 55.3908 32.8723 55.3908H38.1867C41.4825 55.3908 43.1304 55.3908 44.6056 54.9142C45.9109 54.4925 47.1125 53.8027 48.1324 52.8895C48.2897 52.7487 48.4408 52.6007 48.5888 52.4429C46.8525 51.6206 45.4144 50.124 44.742 48.0649L40.1065 33.869C39.6361 32.4286 41.1996 31.17 42.5186 31.9273L55.5178 39.3906C55.7594 39.5293 55.9898 39.6789 56.2086 39.8383C56.719 38.8494 57.0357 38.0668 57.2085 37.2585C57.4939 35.9236 57.4939 34.5441 57.2085 33.2092C56.9062 31.7949 56.1631 30.4593 54.7136 27.9595C54.617 27.7928 54.5172 27.6209 54.4142 27.4435ZM22.0961 40.1485C20.8802 42.2424 20.2723 43.2893 19.9969 44.3928C19.9819 44.4526 20.0028 44.5154 20.0499 44.5553C24.5212 48.3351 29.6459 51.2758 35.1745 53.234C35.2311 53.254 35.2943 53.2409 35.3375 53.1995C36.1608 52.4105 36.7688 51.3636 37.9846 49.2696C38.022 49.2052 37.9916 49.1227 37.9212 49.0974C32.2143 47.0455 26.9178 44.0051 22.277 40.1171C22.22 40.0693 22.1333 40.0843 22.0961 40.1485ZM23.9915 37.7008C28.476 41.4981 33.6193 44.4505 39.1691 46.4131C39.3085 46.4624 39.3782 46.487 39.4458 46.4815C39.5041 46.4767 39.5635 46.4542 39.6102 46.4192C39.6644 46.3785 39.6991 46.3153 39.7686 46.1889C39.9185 45.9163 40.0102 45.7186 40.0665 45.5122C40.1448 45.225 40.1725 44.9265 40.1484 44.6299C40.1212 44.2952 40.0041 43.9657 39.77 43.3066L37.9929 38.3038C37.4225 36.698 37.1373 35.8951 36.6116 35.3497C36.1483 34.8689 35.5568 34.5294 34.9064 34.3707C34.1685 34.1908 33.3266 34.3466 31.6428 34.6583L26.3969 35.6295C25.7059 35.7574 25.3603 35.8214 25.0552 35.9654C24.7849 36.0929 24.5387 36.266 24.3277 36.477C24.176 36.6287 24.0496 36.8067 23.8869 37.0725C23.8116 37.1955 23.7739 37.257 23.7656 37.324C23.7584 37.3818 23.7685 37.4441 23.7935 37.4968C23.8225 37.5578 23.8788 37.6055 23.9915 37.7008ZM40.0133 27.5167C42.2984 28.8285 45.2204 28.05 46.5397 25.7779C47.859 23.5057 47.0761 20.6004 44.791 19.2885C42.5059 17.9767 39.5839 18.7552 38.2646 21.0273C36.9453 23.2995 37.7282 26.2048 40.0133 27.5167Z" fill="#FFC72C"/>
</svg>
