<svg width="100" height="100" viewBox="0 0 100 100" fill="none" xmlns="http://www.w3.org/2000/svg">
<path d="M55.9292 4.61719C63.2593 4.61719 70.1575 4.61719 73.4387 5.84624C76.3414 6.93457 79.0138 8.71548 81.2826 11.0702C84.5005 14.4122 86.9622 19.0793 89.8615 24.6426C94.1327 32.8383 100.349 44.9699 97.913 54.6916C96.8706 58.8514 94.8873 62.6529 92.9418 66.384C91.3523 69.4347 89.7879 71.8011 87.2776 74.9082C78.8608 85.3262 68.7465 88.8895 58.5283 93.4781C53.111 95.9098 46.8593 96.0637 41.4229 93.6738C31.1611 89.1665 21.1884 85.3425 12.7626 74.9192C10.5385 72.1679 8.76728 69.5911 7.10013 66.3906C5.15238 62.6551 3.1686 58.8514 2.12565 54.6916C-0.389181 44.6563 5.71743 33.0351 10.1798 24.6316C13.1199 19.0948 15.5054 14.4474 18.756 11.0702C21.0248 8.71548 23.6972 6.93457 26.6 5.84624C29.8812 4.61719 36.7793 4.61719 44.1095 4.61719H55.9292Z" fill="white"/>
<path d="M42.884 18.0206L49.2323 19.8199C49.8764 20.0024 50.4037 19.2847 50.0458 18.7126L46.5181 13.0742C45.3707 11.2402 42.8173 11.0072 41.3645 12.604C39.7144 14.4176 40.5387 17.3559 42.884 18.0206Z" fill="#011635"/>
<path d="M52.0374 19.7448C51.4173 18.7536 51.7083 17.4412 52.6872 16.8134C53.6662 16.1856 54.9625 16.4802 55.5825 17.4714C56.2026 18.4625 55.9117 19.775 54.9327 20.4028C53.9537 21.0306 52.6574 20.736 52.0374 19.7448Z" fill="#011635"/>
<path d="M44.8159 27.8128C45.7583 27.2254 48.4738 25.4949 48.4738 25.4949C48.6861 25.3587 48.8324 25.1386 48.877 24.8881L49.331 22.3373C49.425 21.8089 49.1184 21.295 48.6201 21.1295L46.0932 20.4383C45.8505 20.372 45.5915 20.4118 45.3791 20.548L44.4772 21.1306L41.1673 23.2687C36.1651 26.387 29.6893 30.4514 24.09 34.5916C23.6891 34.888 23.2928 35.1848 22.9018 35.4816C19.3397 38.186 16.0548 41.0185 13.8401 43.7309C12.7346 45.0848 11.7814 46.5452 11.2428 48.0643C10.6921 49.6178 10.5182 51.4187 11.2897 53.1737C11.95 54.6756 13.2507 55.4066 14.2232 55.7576C15.2533 56.1295 16.4449 56.3029 17.6462 56.3753C18.4863 56.426 19.4091 56.431 20.3998 56.3959C19.962 55.3553 19.583 54.2885 19.3073 53.1824C19.0946 52.3289 18.9788 51.4575 18.9446 50.5753C18.6059 50.572 18.2872 50.5614 17.989 50.5434C17.347 50.5047 16.873 50.4356 16.5408 50.3612C16.5617 50.2676 16.5932 50.1568 16.6395 50.0262C16.8659 49.3877 18.2312 47.4062 18.2312 47.4062C18.2312 47.4062 18.9609 46.5496 19.3829 46.1042C21.1374 44.2528 23.5309 42.2139 26.3197 40.0966C31.8381 35.907 39.3324 31.2328 44.6525 27.9147L44.8159 27.8128Z" fill="#011635"/>
<path d="M49.6665 28.8621L50.773 22.2823C50.8853 21.6147 51.7515 21.4388 52.1094 22.0109L55.6366 27.6497C56.7839 29.4838 55.9007 31.9205 53.854 32.5679C51.5293 33.3032 49.2578 31.2929 49.6665 28.8621Z" fill="#011635"/>
<path d="M80.8546 26.064C79.7056 25.7592 78.4568 25.8117 77.3178 25.977C75.6477 26.2192 73.6775 26.7895 71.5365 27.5793C70.7089 27.8847 69.8558 28.2228 68.9846 28.5875C52.3332 35.5584 34.2739 46.3304 22.0096 59.7744C21.1148 60.7553 20.3311 61.7119 19.6861 62.6319C18.9242 63.7187 18.2746 64.8679 17.8999 66.0369C17.5255 67.2049 17.3542 68.6296 17.9001 70.0444C18.9922 72.8748 21.9423 73.7154 24.1264 73.9827C26.5799 74.2829 29.6464 74.0869 32.9613 73.6029C33.4484 73.5317 33.9448 73.4538 34.4497 73.3693C32.1865 72.0106 30.0048 70.383 27.9451 68.2513C26.72 68.3109 25.6728 68.2872 24.8188 68.1827C24.0214 68.0851 23.5795 67.9452 23.3486 67.8454C23.4777 67.4428 23.7841 66.8167 24.3618 65.9927C24.5954 65.6594 24.8609 65.3099 25.1571 64.9452C25.1782 64.9193 25.1994 64.8932 25.2208 64.8671C26.3824 63.4484 27.9796 61.7776 29.9997 59.9734C41.8872 49.3565 56.5076 40.1328 71.1895 33.9864C72.4004 33.4795 73.5081 33.0561 74.5033 32.7163C75.7915 32.2765 76.8912 31.9769 77.7828 31.8175C77.7341 31.8676 77.6827 31.9194 77.6281 31.9731C77.0159 32.5754 76.1813 33.231 75.1329 33.9271L75.1437 33.9479C75.9519 35.5076 76.8695 37.2901 77.7193 39.1885C79.2549 38.2105 80.5956 37.1997 81.6494 36.163C83.3165 34.5229 85.1463 31.8984 84.0353 28.8617C83.437 27.2265 82.1005 26.3944 80.8546 26.064Z" fill="#011635"/>
<path d="M44.3166 78.1351C47.7765 79.6649 51.7551 79.5664 55.2028 78.0098C55.9455 77.6744 56.6874 77.3474 57.427 77.0216C63.1621 74.4944 68.7545 72.0301 73.4993 66.1232C75.0969 64.1343 76.0924 62.6196 77.104 60.6668L77.1074 60.6602C77.4361 60.0262 77.7665 59.389 78.0868 58.7452C78.9721 56.9659 79.7811 55.1359 80.2677 53.1824C80.4724 52.3612 80.5811 51.5131 80.6094 50.6474C80.6248 50.1743 80.6163 49.696 80.5863 49.2139C77.8446 49.7303 74.1535 51.2819 70.1491 53.389C65.6873 55.7368 61.1528 58.6018 57.6452 60.969C54.7756 62.9057 52.5933 64.5092 51.7004 65.2237C50.4661 66.2113 48.6746 65.9989 47.6991 64.7492C47.5847 64.6026 47.4865 64.4482 47.4045 64.2883C46.787 63.0853 47.0783 61.5699 48.1678 60.6981C50.3923 58.9181 59.0455 52.7308 67.5217 48.2707C71.5727 46.1391 75.8323 44.2663 79.4275 43.5654C78.9438 42.0716 78.3503 40.5981 77.7193 39.1885C76.8695 37.2901 75.9519 35.5076 75.1437 33.9479L75.1329 33.9271C74.9198 33.5157 74.7103 33.112 74.5033 32.7163C73.5081 33.0561 72.4004 33.4795 71.1895 33.9864C56.5076 40.1328 41.8872 49.3565 29.9997 59.9734C27.9796 61.7776 26.3824 63.4484 25.2208 64.8671L25.1571 64.9452C25.4506 65.3384 25.7563 65.7315 26.0768 66.1302C26.6872 66.8897 27.3103 67.5944 27.9451 68.2513C30.0048 70.383 32.1865 72.0106 34.4497 73.3693C37.1798 75.0082 40.0286 76.2556 42.9252 77.524C43.3879 77.7266 43.8518 77.9297 44.3166 78.1351Z" fill="#FFC72C"/>
<path fill-rule="evenodd" clip-rule="evenodd" d="M48.4738 25.4949C48.4738 25.4949 45.7583 27.2254 44.8159 27.8128L44.6525 27.9147C39.3324 31.2328 31.8381 35.907 26.3197 40.0966C23.5309 42.2139 21.1374 44.2528 19.3829 46.1042C19.0573 47.6021 18.8874 49.1036 18.9446 50.5753C18.9788 51.4575 19.0946 52.3289 19.3073 53.1824C19.583 54.2885 19.962 55.3553 20.3998 56.3959C20.8795 57.5361 21.4475 58.6795 22.0096 59.7744C34.2739 46.3304 52.3332 35.5584 68.9846 28.5875C69.8558 28.2228 70.7089 27.8847 71.5365 27.5793C70.9519 26.7246 70.3428 25.9485 69.6839 25.2602C68.24 23.7529 66.5393 22.6129 64.6919 21.9163C62.6037 21.1295 58.2136 21.1295 53.5486 21.1295H48.6201C49.1184 21.295 49.425 21.8089 49.331 22.3373L48.877 24.8881C48.8324 25.1386 48.6861 25.3587 48.4738 25.4949ZM50.773 22.2823L49.6665 28.8621C49.2578 31.2929 51.5293 33.3032 53.854 32.5679C55.9007 31.9205 56.7839 29.4838 55.6366 27.6497L52.1094 22.0109C51.7515 21.4388 50.8853 21.6147 50.773 22.2823Z" fill="#FFC72C"/>
<path d="M34.8831 21.9163C33.0357 22.6129 31.335 23.7529 29.8911 25.2602C27.9282 27.3112 26.461 30.0943 24.7177 33.4011C24.6237 33.5795 24.5288 33.7594 24.4331 33.9408C24.3202 34.1546 24.2057 34.3716 24.09 34.5916C29.6893 30.4514 36.1651 26.387 41.1673 23.2687L44.4772 21.1306C40.4099 21.1393 36.7382 21.2174 34.8831 21.9163Z" fill="#FFC72C"/>
<path d="M85.8205 54.0788C86.7244 53.3664 87.5759 52.5742 88.1931 51.7096C88.3851 51.4406 88.5914 51.1119 88.769 50.7336C89.1256 49.9741 89.3668 49.0146 89.1464 47.936C88.611 45.7476 87.3362 44.5579 85.377 43.7978C83.6178 43.1153 81.6357 43.178 79.813 43.4943C79.6854 43.5165 79.5569 43.5402 79.4275 43.5654C75.8323 44.2663 71.5727 46.1391 67.5217 48.2707C59.0455 52.7308 50.3923 58.9181 48.1678 60.6981C47.0783 61.5699 46.787 63.0853 47.4045 64.2883C47.4865 64.4482 47.5847 64.6026 47.6991 64.7492C48.6746 65.9989 50.4661 66.2113 51.7004 65.2237C52.5933 64.5092 54.7756 62.9057 57.6452 60.969C61.1528 58.6018 65.6873 55.7368 70.1491 53.389C74.1535 51.2819 77.8446 49.7303 80.5863 49.2139C80.5863 49.2139 82.2305 48.95 82.7698 49.0594C82.6271 49.1846 82.4633 49.3211 82.276 49.4687C81.8084 49.8372 81.2511 50.2313 80.6094 50.6474C80.5811 51.5131 80.4724 52.3612 80.2677 53.1824C79.7811 55.1359 78.9721 56.9659 78.0868 58.7452C78.2078 58.6841 78.328 58.623 78.4473 58.562C81.4185 57.0438 83.9927 55.5194 85.8205 54.0788Z" fill="#011635"/>
</svg>
