<svg width="1001" height="839" viewBox="0 0 1001 839" fill="none" xmlns="http://www.w3.org/2000/svg">
<path d="M566.546 0.770508C634.554 0.770499 668.559 0.770494 699 10.6614C725.934 19.4128 750.728 33.7277 771.774 52.6777C795.56 74.095 812.562 103.544 846.567 162.441L901.398 257.412C935.402 316.309 952.405 345.757 959.059 377.065C964.948 404.767 964.948 433.396 959.059 461.098C952.405 492.406 935.402 521.855 901.398 580.752L846.567 675.723C812.562 734.62 795.56 764.068 771.774 785.485C750.728 804.435 725.934 818.75 699 827.502C668.559 837.393 634.554 837.393 566.546 837.393H456.883C388.874 837.393 354.87 837.393 324.429 827.502C297.495 818.75 272.701 804.435 251.655 785.485C227.869 764.068 210.867 734.62 176.862 675.723L122.031 580.752C88.0264 521.854 71.0244 492.406 64.3696 461.098C58.4815 433.396 58.4814 404.767 64.3695 377.065C71.0243 345.757 88.0264 316.309 122.031 257.411L176.862 162.441C210.866 103.543 227.868 74.095 251.655 52.6778C272.701 33.7278 297.495 19.4129 324.429 10.6614C354.87 0.770545 388.874 0.77054 456.883 0.770532L566.546 0.770508Z" fill="#FFC72C"/>
<path d="M234.268 777.607C246.226 798.419 252.205 808.825 260.323 816.654C269.663 825.663 281.067 832.247 293.539 835.832C304.378 838.947 316.381 838.922 340.383 838.872C369.926 838.811 390.771 838.767 407.545 837.4C414.883 836.802 418.552 836.503 420.301 834.412C421.711 832.727 422.176 829.992 421.401 827.936C420.44 825.385 416.797 823.768 409.511 820.534C341.114 790.177 276.119 752.667 215.616 708.633C209.168 703.941 205.945 701.595 203.255 702.039C201.086 702.397 198.952 704.166 198.198 706.231C197.262 708.791 198.84 712.12 201.994 718.776C209.196 733.972 219.572 752.031 234.268 777.607Z" fill="url(#paint0_linear_2738_27354)"/>
<path d="M192.314 612.55C191.34 611.722 190.91 610.418 191.218 609.177C196.903 586.278 209.447 564.551 234.535 521.096C235.304 519.764 237.092 519.454 238.268 520.445C334.03 601.131 443.324 664.228 561.085 706.81C562.538 707.336 563.166 709.047 562.393 710.385C537.305 753.84 524.761 775.567 507.771 791.94C506.879 792.8 505.575 793.072 504.407 792.656C390.326 752.018 284.577 690.991 192.314 612.55Z" fill="url(#paint1_linear_2738_27354)"/>
<path d="M271.489 457.261C269.935 459.814 269.157 461.091 268.985 462.481C268.837 463.68 269.045 464.974 269.561 466.066C270.16 467.332 271.322 468.322 273.647 470.301C366.184 549.105 472.317 610.375 586.835 651.104C589.711 652.127 591.15 652.639 592.546 652.524C593.749 652.425 594.974 651.958 595.938 651.23C597.055 650.386 597.772 649.075 599.207 646.452C602.3 640.793 604.192 636.691 605.353 632.408C606.968 626.448 607.54 620.254 607.043 614.099C606.482 607.153 604.067 600.314 599.236 586.637L562.566 482.814C550.796 449.49 544.911 432.827 534.063 421.508C524.502 411.531 512.296 404.484 498.876 401.193C483.649 397.458 466.276 400.692 431.531 407.161L323.283 427.315C309.023 429.97 301.893 431.298 295.597 434.285C290.018 436.932 284.939 440.525 280.585 444.904C277.454 448.052 274.846 451.745 271.489 457.261Z" fill="url(#paint2_linear_2738_27354)"/>
<path d="M738.927 222.867C711.704 270.02 651.409 286.176 604.256 258.952C557.104 231.728 540.948 171.434 568.172 124.281C595.395 77.1282 655.69 60.9725 702.842 88.1962C749.995 115.42 766.151 175.714 738.927 222.867Z" fill="url(#paint3_linear_2738_27354)"/>
<path d="M606.179 390.781L701.833 685.383C737.171 794.219 875.005 827.326 955.919 746.412C1027.16 675.172 1011.44 555.746 924.19 505.368L655.952 350.485C628.735 334.769 596.473 360.889 606.179 390.781Z" fill="url(#paint4_linear_2738_27354)"/>
<path d="M489.033 323.135L186.073 387.597C74.1496 411.412 -23.4384 308.596 6.17805 198.066C32.2537 100.751 143.539 54.652 230.792 105.022L499.044 259.882C526.262 275.595 519.774 316.594 489.033 323.135Z" fill="url(#paint5_linear_2738_27354)"/>
<defs>
<linearGradient id="paint0_linear_2738_27354" x1="760.218" y1="-51.4014" x2="113.022" y2="1168.19" gradientUnits="userSpaceOnUse">
<stop stop-color="#001535"/>
<stop offset="1" stop-color="#023A8D"/>
</linearGradient>
<linearGradient id="paint1_linear_2738_27354" x1="760.218" y1="-51.4014" x2="113.022" y2="1168.19" gradientUnits="userSpaceOnUse">
<stop stop-color="#001535"/>
<stop offset="1" stop-color="#023A8D"/>
</linearGradient>
<linearGradient id="paint2_linear_2738_27354" x1="760.218" y1="-51.4014" x2="113.022" y2="1168.19" gradientUnits="userSpaceOnUse">
<stop stop-color="#001535"/>
<stop offset="1" stop-color="#023A8D"/>
</linearGradient>
<linearGradient id="paint3_linear_2738_27354" x1="760.218" y1="-51.4014" x2="113.022" y2="1168.19" gradientUnits="userSpaceOnUse">
<stop stop-color="#001535"/>
<stop offset="1" stop-color="#023A8D"/>
</linearGradient>
<linearGradient id="paint4_linear_2738_27354" x1="760.218" y1="-51.4014" x2="113.022" y2="1168.19" gradientUnits="userSpaceOnUse">
<stop stop-color="#001535"/>
<stop offset="1" stop-color="#023A8D"/>
</linearGradient>
<linearGradient id="paint5_linear_2738_27354" x1="760.218" y1="-51.4014" x2="113.022" y2="1168.19" gradientUnits="userSpaceOnUse">
<stop stop-color="#001535"/>
<stop offset="1" stop-color="#023A8D"/>
</linearGradient>
</defs>
</svg>
