<svg width="250" height="72" viewBox="0 0 250 72" fill="none" xmlns="http://www.w3.org/2000/svg">
<path d="M82.0228 46.7179C79.8834 46.7179 78.0834 46.2448 76.6228 45.2985C75.1623 44.3316 74.1337 43.0253 73.5371 41.3796L77.1783 39.2505C78.0217 41.4516 79.6777 42.5522 82.1463 42.5522C83.3394 42.5522 84.2137 42.3362 84.7691 41.9042C85.3245 41.4722 85.6023 40.9271 85.6023 40.2688C85.6023 39.5076 85.2628 38.9213 84.584 38.5099C83.9051 38.0779 82.6914 37.615 80.9428 37.1213C79.976 36.8333 79.1531 36.5453 78.4743 36.2573C77.816 35.9693 77.1474 35.5888 76.4685 35.1156C75.8103 34.6219 75.3063 34.0048 74.9565 33.2642C74.6068 32.5236 74.432 31.6596 74.432 30.6722C74.432 28.7179 75.1211 27.1648 76.4994 26.0128C77.8983 24.8402 79.5748 24.2539 81.5291 24.2539C83.2777 24.2539 84.8103 24.6859 86.1268 25.5499C87.464 26.3933 88.5028 27.5762 89.2434 29.0985L85.664 31.1659C84.8 29.3145 83.4217 28.3888 81.5291 28.3888C80.6445 28.3888 79.9451 28.5945 79.4308 29.0059C78.9371 29.3968 78.6903 29.911 78.6903 30.5488C78.6903 31.2276 78.968 31.783 79.5234 32.215C80.0994 32.6265 81.1897 33.079 82.7943 33.5728C83.4525 33.7785 83.9463 33.943 84.2754 34.0665C84.6251 34.1693 85.088 34.3442 85.664 34.5911C86.2605 34.8173 86.7131 35.0333 87.0217 35.239C87.3508 35.4448 87.7211 35.7225 88.1325 36.0722C88.544 36.4219 88.8525 36.7819 89.0583 37.1522C89.2845 37.5225 89.4697 37.9751 89.6137 38.5099C89.7783 39.0242 89.8605 39.5899 89.8605 40.2071C89.8605 42.2025 89.1303 43.7865 87.6697 44.9591C86.2297 46.1316 84.3474 46.7179 82.0228 46.7179Z" fill="white"/>
<path d="M100.44 34.6836H96.9533V41.1019C96.9533 41.6368 97.0871 42.0276 97.3545 42.2745C97.6219 42.5213 98.0128 42.6653 98.5271 42.7065C99.0413 42.7271 99.6791 42.7168 100.44 42.6756V46.2859C97.7042 46.5945 95.7705 46.3373 94.6391 45.5145C93.5282 44.6916 92.9728 43.2208 92.9728 41.1019V34.6836H90.2882V30.8573H92.9728V27.7408L96.9533 26.5373V30.8573H100.44V34.6836Z" fill="white"/>
<path d="M107.083 33.511C107.453 32.5236 108.06 31.783 108.903 31.2893C109.767 30.7956 110.724 30.5488 111.773 30.5488V34.9922C110.559 34.8482 109.469 35.0951 108.502 35.7328C107.556 36.3705 107.083 37.4299 107.083 38.911V46.2859H103.102V30.8573H107.083V33.511Z" fill="white"/>
<path d="M124.868 30.8573H128.849V46.2859H124.868V44.4653C123.675 45.9671 121.999 46.7179 119.839 46.7179C117.782 46.7179 116.012 45.9362 114.531 44.3728C113.071 42.7888 112.34 40.8551 112.34 38.5716C112.34 36.2882 113.071 34.3648 114.531 32.8013C116.012 31.2173 117.782 30.4253 119.839 30.4253C121.999 30.4253 123.675 31.1762 124.868 32.6779V30.8573ZM117.524 41.7191C118.327 42.5213 119.345 42.9225 120.579 42.9225C121.814 42.9225 122.832 42.5213 123.634 41.7191C124.457 40.8962 124.868 39.8471 124.868 38.5716C124.868 37.2962 124.457 36.2573 123.634 35.4551C122.832 34.6322 121.814 34.2208 120.579 34.2208C119.345 34.2208 118.327 34.6322 117.524 35.4551C116.722 36.2573 116.321 37.2962 116.321 38.5716C116.321 39.8471 116.722 40.8962 117.524 41.7191Z" fill="white"/>
<path d="M140.651 30.4253C142.338 30.4253 143.727 30.9911 144.817 32.1225C145.928 33.2539 146.483 34.8173 146.483 36.8128V46.2859H142.503V37.3065C142.503 36.2779 142.225 35.4962 141.669 34.9613C141.114 34.4059 140.373 34.1282 139.448 34.1282C138.419 34.1282 137.596 34.447 136.979 35.0848C136.362 35.7225 136.053 36.6791 136.053 37.9545V46.2859H132.073V30.8573H136.053V32.5853C137.02 31.1453 138.553 30.4253 140.651 30.4253Z" fill="white"/>
<path d="M161.315 30.8573H165.203V45.5453C165.203 47.9316 164.411 49.7522 162.827 51.007C161.263 52.2619 159.371 52.8893 157.149 52.8893C155.483 52.8893 154.012 52.5705 152.736 51.9328C151.481 51.2951 150.515 50.3591 149.836 49.1248L153.23 47.1808C154.012 48.6208 155.359 49.3408 157.272 49.3408C158.527 49.3408 159.515 49.0116 160.235 48.3533C160.955 47.6951 161.315 46.7591 161.315 45.5453V43.879C160.142 45.4425 158.496 46.2242 156.377 46.2242C154.197 46.2242 152.366 45.4631 150.885 43.9408C149.424 42.3979 148.694 40.5259 148.694 38.3248C148.694 36.1442 149.435 34.2825 150.916 32.7396C152.397 31.1968 154.217 30.4253 156.377 30.4253C158.496 30.4253 160.142 31.2071 161.315 32.7705V30.8573ZM153.878 41.3796C154.701 42.1613 155.74 42.5522 156.995 42.5522C158.249 42.5522 159.278 42.1613 160.08 41.3796C160.903 40.5773 161.315 39.559 161.315 38.3248C161.315 37.111 160.903 36.1133 160.08 35.3316C159.278 34.5293 158.249 34.1282 156.995 34.1282C155.74 34.1282 154.701 34.5293 153.878 35.3316C153.076 36.1133 152.675 37.111 152.675 38.3248C152.675 39.559 153.076 40.5773 153.878 41.3796Z" fill="white"/>
<path d="M171.79 40.2071C172.325 42.1408 173.775 43.1076 176.141 43.1076C177.663 43.1076 178.815 42.5933 179.597 41.5648L182.806 43.4162C181.284 45.6173 179.041 46.7179 176.079 46.7179C173.528 46.7179 171.481 45.9465 169.938 44.4036C168.396 42.8608 167.624 40.9168 167.624 38.5716C167.624 36.2471 168.385 34.3133 169.908 32.7705C171.43 31.2071 173.384 30.4253 175.77 30.4253C178.033 30.4253 179.895 31.2071 181.356 32.7705C182.837 34.3339 183.577 36.2676 183.577 38.5716C183.577 39.0859 183.526 39.6311 183.423 40.2071H171.79ZM171.728 37.1213H179.597C179.37 36.0722 178.897 35.2905 178.177 34.7762C177.478 34.2619 176.676 34.0048 175.77 34.0048C174.701 34.0048 173.816 34.2825 173.117 34.8379C172.417 35.3728 171.954 36.1339 171.728 37.1213Z" fill="white"/>
<path d="M199.208 35.0848C201.101 36.175 202.047 37.8208 202.047 40.0219C202.047 41.8528 201.399 43.3545 200.103 44.527C198.807 45.6996 197.213 46.2859 195.32 46.2859H186.156V24.6859H194.672C196.524 24.6859 198.077 25.2619 199.332 26.4139C200.607 27.5453 201.245 28.9956 201.245 30.7648C201.245 32.5545 200.566 33.9945 199.208 35.0848ZM194.672 28.6665H190.414V33.4185H194.672C195.33 33.4185 195.876 33.1922 196.308 32.7396C196.76 32.287 196.986 31.7213 196.986 31.0425C196.986 30.3636 196.77 29.7979 196.338 29.3453C195.906 28.8928 195.351 28.6665 194.672 28.6665ZM195.32 42.3053C196.04 42.3053 196.637 42.0688 197.11 41.5956C197.583 41.1019 197.82 40.4848 197.82 39.7442C197.82 39.0242 197.583 38.4276 197.11 37.9545C196.637 37.4608 196.04 37.2139 195.32 37.2139H190.414V42.3053H195.32Z" fill="white"/>
<path d="M207.872 40.2071C208.407 42.1408 209.857 43.1076 212.223 43.1076C213.745 43.1076 214.897 42.5933 215.679 41.5648L218.888 43.4162C217.366 45.6173 215.124 46.7179 212.161 46.7179C209.611 46.7179 207.564 45.9465 206.021 44.4036C204.478 42.8608 203.707 40.9168 203.707 38.5716C203.707 36.2471 204.468 34.3133 205.99 32.7705C207.512 31.2071 209.467 30.4253 211.853 30.4253C214.116 30.4253 215.977 31.2071 217.438 32.7705C218.919 34.3339 219.66 36.2676 219.66 38.5716C219.66 39.0859 219.608 39.6311 219.505 40.2071H207.872ZM207.811 37.1213H215.679C215.453 36.0722 214.98 35.2905 214.26 34.7762C213.56 34.2619 212.758 34.0048 211.853 34.0048C210.783 34.0048 209.899 34.2825 209.199 34.8379C208.5 35.3728 208.037 36.1339 207.811 37.1213Z" fill="white"/>
<path d="M225.296 40.2071C225.831 42.1408 227.281 43.1076 229.647 43.1076C231.169 43.1076 232.321 42.5933 233.103 41.5648L236.312 43.4162C234.789 45.6173 232.547 46.7179 229.585 46.7179C227.034 46.7179 224.987 45.9465 223.444 44.4036C221.901 42.8608 221.13 40.9168 221.13 38.5716C221.13 36.2471 221.891 34.3133 223.413 32.7705C224.936 31.2071 226.89 30.4253 229.276 30.4253C231.539 30.4253 233.401 31.2071 234.861 32.7705C236.343 34.3339 237.083 36.2676 237.083 38.5716C237.083 39.0859 237.032 39.6311 236.929 40.2071H225.296ZM225.234 37.1213H233.103C232.876 36.0722 232.403 35.2905 231.683 34.7762C230.984 34.2619 230.181 34.0048 229.276 34.0048C228.207 34.0048 227.322 34.2825 226.623 34.8379C225.923 35.3728 225.46 36.1339 225.234 37.1213Z" fill="white"/>
<path fill-rule="evenodd" clip-rule="evenodd" d="M32.433 57.1048C31.6133 57.165 30.6632 57.1668 29.6276 57.1689L29.4932 57.1691C29.4272 57.1693 29.3576 57.1697 29.2848 57.1702C28.5503 57.1749 27.4865 57.1818 26.4649 56.8899C25.3236 56.5637 24.2777 55.964 23.4195 55.1409C22.6504 54.4033 22.1213 53.4782 21.7584 52.8437C21.7224 52.7807 21.688 52.7206 21.6552 52.6638L21.5885 52.5484C21.0957 51.6957 20.6408 50.9087 20.2889 50.1975C19.9977 49.7097 19.6817 49.1655 19.3395 48.576L17.0999 44.7191C17.0197 44.581 16.9401 44.4442 16.8611 44.3085C15.7149 42.3403 14.7069 40.6091 14.2975 38.6942C14.0672 37.6168 13.9846 36.5161 14.0499 35.422C12.0139 33.0127 11.0425 29.6485 11.9825 26.1601C13.3381 21.1299 18.0843 18.1702 22.8622 18.605C22.9619 18.508 23.0644 18.4121 23.1702 18.3174C24.4492 17.1722 25.9546 16.3085 27.5881 15.7807C29.4513 15.1788 31.454 15.1812 33.745 15.184C33.9017 15.1842 34.0596 15.1843 34.219 15.1843L38.6747 15.1843C38.834 15.1843 38.992 15.1842 39.1486 15.184C41.4396 15.1812 43.4423 15.1788 45.3055 15.7807C46.9391 16.3085 48.4444 17.1722 49.7235 18.3174C51.1836 19.6246 52.1863 21.3564 53.3286 23.3293C53.407 23.4647 53.486 23.6012 53.5659 23.7387L55.7937 27.5756C55.8799 27.724 55.9643 27.8693 56.046 28.0103C56.0777 28.0648 56.1092 28.1192 56.1407 28.1734C57.2199 30.0336 58.1918 31.709 58.5962 33.6005C58.9551 35.2795 58.9551 37.0151 58.5962 38.6942C58.5681 38.8254 58.5377 38.9547 58.505 39.0822C61.2725 42.998 61.0534 48.5787 57.3593 52.2518C54.7991 54.7976 51.3938 55.6393 48.284 55.0855C47.3623 55.692 46.3606 56.173 45.3055 56.5139C43.4423 57.1159 41.4396 57.1134 39.1486 57.1107C38.992 57.1105 38.834 57.1103 38.6747 57.1103H34.1992C33.5613 57.1103 32.97 57.1103 32.433 57.1048Z" fill="white"/>
<path d="M25.1701 50.6296C25.6559 51.4704 25.8989 51.8908 26.2287 52.2071C26.6082 52.5711 27.0715 52.8371 27.5783 52.9819C28.0187 53.1077 28.5064 53.1067 29.4816 53.1047C30.682 53.1022 31.5289 53.1005 32.2105 53.0452C32.2393 53.0429 32.2667 53.0407 32.2928 53.0385C32.5367 53.0181 32.6645 53.0008 32.7288 52.9245C32.786 52.8564 32.8049 52.746 32.7734 52.6629C32.7344 52.5598 32.5864 52.4945 32.2903 52.3638C29.5113 51.1374 26.8705 49.622 24.4122 47.843C24.1502 47.6534 24.0192 47.5587 23.91 47.5766C23.8219 47.5911 23.7351 47.6626 23.7045 47.746C23.6665 47.8494 23.7306 47.9839 23.8588 48.2528C23.8597 48.2549 23.8607 48.2569 23.8617 48.259C24.1542 48.8716 24.575 49.5998 25.1701 50.6296Z" fill="#011635"/>
<path d="M23.4654 43.9612C23.4259 43.9278 23.4084 43.8751 23.4209 43.825C23.6519 42.8998 24.1615 42.022 25.1809 40.2665C25.2122 40.2127 25.2848 40.2001 25.3326 40.2402C29.2235 43.4999 33.6642 46.049 38.4489 47.7694C38.508 47.7906 38.5335 47.8597 38.5021 47.9138C37.4827 49.6694 36.973 50.5472 36.2827 51.2086C36.2465 51.2434 36.1935 51.2544 36.146 51.2376C31.5108 49.5958 27.2141 47.1303 23.4654 43.9612Z" fill="#011635"/>
<path d="M26.6824 37.6875C26.6192 37.7907 26.5876 37.8423 26.5807 37.8984C26.5746 37.9469 26.5831 37.9991 26.6041 38.0432C26.6284 38.0944 26.6756 38.1344 26.77 38.2143C30.5299 41.398 34.8422 43.8734 39.4952 45.5188C39.612 45.5602 39.6705 45.5808 39.7272 45.5762C39.7761 45.5722 39.8259 45.5533 39.865 45.5239C39.9104 45.4898 39.9396 45.4368 39.9978 45.3309C40.1235 45.1023 40.2004 44.9365 40.2476 44.7635C40.3132 44.5227 40.3364 44.2725 40.3162 44.0238C40.2934 43.7432 40.1953 43.4669 39.999 42.9143L38.5091 38.7199C38.0309 37.3736 37.7917 36.7004 37.351 36.2431C36.9625 35.84 36.4666 35.5553 35.9213 35.4223C35.3026 35.2715 34.5968 35.4021 33.185 35.6635L28.7868 36.4777C28.2074 36.585 27.9177 36.6386 27.6619 36.7593C27.4352 36.8662 27.2289 37.0114 27.052 37.1883C26.9248 37.3155 26.8188 37.4647 26.6824 37.6875Z" fill="#011635"/>
<path d="M45.6748 28.2179C44.5687 30.1229 42.1189 30.7756 40.203 29.6758C38.2872 28.5759 37.6307 26.14 38.7369 24.235C39.843 22.33 42.2928 21.6774 44.2087 22.7772C46.1245 23.877 46.7809 26.3129 45.6748 28.2179Z" fill="#011635"/>
<path d="M40.2811 35.0017L44.1676 46.9037C44.7314 48.6301 45.9371 49.8849 47.3928 50.5743C49.6446 51.6409 52.4946 51.3547 54.4914 49.3693C57.2205 46.6557 56.8087 42.2115 53.7814 40.0065C53.5979 39.8728 53.4048 39.7474 53.2022 39.6311L42.3035 33.3737C41.1976 32.7388 39.8868 33.7941 40.2811 35.0017Z" fill="#011635"/>
<path d="M35.5214 32.2688L23.2119 34.8731C21.4265 35.2508 19.7309 34.84 18.4026 33.9314C16.3476 32.5256 15.1716 29.9283 15.9026 27.216C16.9015 23.5089 20.9785 21.6415 24.4127 23.1461C24.6207 23.2373 24.8264 23.3408 25.0288 23.457L35.9281 29.7133C37.034 30.3481 36.7704 32.0045 35.5214 32.2688Z" fill="#011635"/>
<path fill-rule="evenodd" clip-rule="evenodd" d="M52.2769 29.6145L50.049 25.7776C48.6674 23.3982 47.9766 22.2084 47.0102 21.3432C46.155 20.5776 45.1476 19.9992 44.0533 19.6457C42.8164 19.2461 41.4348 19.2461 38.6716 19.2461L34.2158 19.2461C31.4526 19.2461 30.071 19.2461 28.8341 19.6457C27.7398 19.9993 26.7324 20.5776 25.8772 21.3432C25.3595 21.8067 24.9209 22.3633 24.4127 23.1461C24.6207 23.2373 24.8264 23.3408 25.0288 23.457L35.9281 29.7133C37.034 30.3481 36.7704 32.0045 35.5214 32.2688L23.2119 34.8731C21.4265 35.2508 19.7309 34.84 18.4026 33.9314C18.3494 34.1045 18.3046 34.2758 18.2677 34.4485C18.0284 35.5676 18.0284 36.7243 18.2677 37.8434C18.5381 39.1083 19.2289 40.298 20.6105 42.6775L22.8384 46.5143C23.2269 47.1836 23.5609 47.7588 23.8617 48.259L23.8588 48.2528C23.7306 47.9839 23.6665 47.8494 23.7045 47.746C23.7351 47.6626 23.8219 47.5911 23.91 47.5766C24.0192 47.5587 24.1502 47.6534 24.4122 47.843C26.8705 49.622 29.5113 51.1374 32.2903 52.3638C32.5864 52.4945 32.7344 52.5598 32.7734 52.6629C32.8049 52.746 32.786 52.8564 32.7288 52.9245C32.6645 53.0008 32.5367 53.0181 32.2928 53.0385C32.8527 53.0459 33.4861 53.0459 34.2158 53.0459H38.6716C41.4348 53.0459 42.8164 53.0459 44.0533 52.6463C45.1476 52.2927 46.155 51.7144 47.0102 50.9488C47.142 50.8307 47.2687 50.7066 47.3928 50.5743C45.9371 49.8849 44.7314 48.6301 44.1676 46.9037L40.2811 35.0017C39.8868 33.7941 41.1976 32.7388 42.3035 33.3737L53.2022 39.6311C53.4048 39.7474 53.5979 39.8728 53.7814 40.0065C54.2093 39.1773 54.4749 38.5212 54.6197 37.8434C54.859 36.7243 54.859 35.5676 54.6197 34.4485C54.3662 33.2627 53.7433 32.143 52.528 30.047C52.447 29.9073 52.3632 29.7632 52.2769 29.6145ZM25.1809 40.2665C24.1615 42.022 23.6519 42.8998 23.4209 43.825C23.4084 43.8751 23.4259 43.9278 23.4654 43.9612C27.2141 47.1303 31.5108 49.5958 36.146 51.2376C36.1935 51.2544 36.2465 51.2434 36.2827 51.2086C36.973 50.5472 37.4827 49.6694 38.5021 47.9138C38.5335 47.8597 38.508 47.7906 38.4489 47.7694C33.6642 46.049 29.2235 43.4999 25.3326 40.2402C25.2848 40.2001 25.2122 40.2127 25.1809 40.2665ZM26.77 38.2143C30.5299 41.398 34.8422 43.8734 39.4952 45.5188C39.612 45.5602 39.6705 45.5808 39.7272 45.5762C39.7761 45.5722 39.8259 45.5533 39.865 45.5239C39.9104 45.4898 39.9396 45.4368 39.9978 45.3309C40.1235 45.1023 40.2004 44.9365 40.2476 44.7635C40.3132 44.5227 40.3364 44.2725 40.3162 44.0238C40.2934 43.7432 40.1953 43.4669 39.999 42.9143L38.5091 38.7199C38.0309 37.3736 37.7917 36.7004 37.351 36.2431C36.9625 35.84 36.4666 35.5553 35.9213 35.4223C35.3026 35.2715 34.5968 35.4021 33.185 35.6635L28.7868 36.4777C28.2074 36.585 27.9177 36.6386 27.6619 36.7593C27.4352 36.8662 27.2289 37.0114 27.052 37.1883C26.9248 37.3155 26.8188 37.4647 26.6824 37.6875C26.6192 37.7907 26.5876 37.8423 26.5807 37.8984C26.5746 37.9469 26.5831 37.9991 26.6041 38.0432C26.6284 38.0944 26.6756 38.1344 26.77 38.2143ZM40.203 29.6758C42.1189 30.7756 44.5687 30.1229 45.6748 28.2179C46.7809 26.3129 46.1245 23.877 44.2087 22.7772C42.2928 21.6774 39.843 22.33 38.7369 24.235C37.6307 26.14 38.2872 28.5759 40.203 29.6758Z" fill="#FFC72C"/>
</svg>
