<svg width="246" height="72" viewBox="0 0 246 72" fill="none" xmlns="http://www.w3.org/2000/svg">
<path d="M80.8959 46.7179C78.7859 46.7179 77.0106 46.2448 75.5702 45.2985C74.1297 44.3316 73.1152 43.0253 72.5269 41.3796L76.1179 39.2505C76.9498 41.4516 78.583 42.5522 81.0177 42.5522C82.1944 42.5522 83.0567 42.3362 83.6045 41.9042C84.1523 41.4722 84.4262 40.9271 84.4262 40.2688C84.4262 39.5076 84.0914 38.9213 83.4219 38.5099C82.7523 38.0779 81.5553 37.615 79.8308 37.1213C78.8772 36.8333 78.0657 36.5453 77.3961 36.2573C76.7469 35.9693 76.0875 35.5888 75.418 35.1156C74.7688 34.6219 74.2717 34.0048 73.9268 33.2642C73.5819 32.5236 73.4094 31.6596 73.4094 30.6722C73.4094 28.7179 74.0891 27.1648 75.4484 26.0128C76.8281 24.8402 78.4816 24.2539 80.409 24.2539C82.1335 24.2539 83.645 24.6859 84.9435 25.5499C86.2623 26.3933 87.2869 27.5762 88.0172 29.0985L84.487 31.1659C83.6349 29.3145 82.2756 28.3888 80.409 28.3888C79.5366 28.3888 78.8468 28.5945 78.3396 29.0059C77.8526 29.3968 77.6092 29.911 77.6092 30.5488C77.6092 31.2276 77.8831 31.783 78.4309 32.215C78.9989 32.6265 80.0742 33.079 81.6568 33.5728C82.306 33.7785 82.7929 33.9431 83.1175 34.0665C83.4624 34.1693 83.9189 34.3442 84.487 34.5911C85.0754 34.8173 85.5217 35.0333 85.8261 35.239C86.1507 35.4448 86.5159 35.7225 86.9217 36.0722C87.3274 36.4219 87.6318 36.7819 87.8347 37.1522C88.0578 37.5225 88.2404 37.975 88.3824 38.5099C88.5448 39.0242 88.6259 39.5899 88.6259 40.2071C88.6259 42.2025 87.9057 43.7865 86.4652 44.9591C85.045 46.1316 83.1885 46.7179 80.8959 46.7179Z" fill="#011635"/>
<path d="M99.0601 34.6836H95.6212V41.1019C95.6212 41.6368 95.7531 42.0276 96.0168 42.2745C96.2806 42.5213 96.6661 42.6653 97.1733 42.7065C97.6805 42.7271 98.3095 42.7168 99.0601 42.6756V46.2859C96.3618 46.5945 94.4546 46.3373 93.3387 45.5145C92.2432 44.6916 91.6954 43.2208 91.6954 41.1019V34.6836H89.0477V30.8573H91.6954V27.7408L95.6212 26.5373V30.8573H99.0601V34.6836Z" fill="#011635"/>
<path d="M105.611 33.511C105.977 32.5236 106.575 31.783 107.407 31.2893C108.259 30.7956 109.202 30.5488 110.237 30.5488V34.9922C109.04 34.8482 107.965 35.0951 107.011 35.7328C106.078 36.3705 105.611 37.4299 105.611 38.911V46.2859H101.685V30.8573H105.611V33.511Z" fill="#011635"/>
<path d="M123.153 30.8573H127.078V46.2859H123.153V44.4653C121.976 45.9671 120.322 46.7179 118.192 46.7179C116.163 46.7179 114.418 45.9362 112.958 44.3728C111.517 42.7888 110.797 40.8551 110.797 38.5716C110.797 36.2882 111.517 34.3648 112.958 32.8013C114.418 31.2173 116.163 30.4253 118.192 30.4253C120.322 30.4253 121.976 31.1762 123.153 32.6779V30.8573ZM115.91 41.7191C116.701 42.5213 117.705 42.9225 118.922 42.9225C120.14 42.9225 121.144 42.5213 121.935 41.7191C122.747 40.8962 123.153 39.8471 123.153 38.5716C123.153 37.2962 122.747 36.2573 121.935 35.4551C121.144 34.6322 120.14 34.2208 118.922 34.2208C117.705 34.2208 116.701 34.6322 115.91 35.4551C115.118 36.2573 114.723 37.2962 114.723 38.5716C114.723 39.8471 115.118 40.8962 115.91 41.7191Z" fill="#011635"/>
<path d="M138.718 30.4253C140.382 30.4253 141.752 30.9911 142.827 32.1225C143.922 33.2539 144.47 34.8173 144.47 36.8128V46.2859H140.544V37.3065C140.544 36.2779 140.27 35.4962 139.723 34.9613C139.175 34.4059 138.444 34.1282 137.531 34.1282C136.517 34.1282 135.706 34.447 135.097 35.0848C134.488 35.7225 134.184 36.6791 134.184 37.9545V46.2859H130.258V30.8573H134.184V32.5853C135.137 31.1453 136.649 30.4253 138.718 30.4253Z" fill="#011635"/>
<path d="M159.098 30.8573H162.932V45.5453C162.932 47.9316 162.151 49.7522 160.589 51.007C159.047 52.2619 157.18 52.8893 154.989 52.8893C153.346 52.8893 151.895 52.5705 150.637 51.9328C149.4 51.2951 148.446 50.3591 147.777 49.1248L151.124 47.1808C151.895 48.6208 153.224 49.3408 155.111 49.3408C156.349 49.3408 157.323 49.0116 158.033 48.3533C158.743 47.6951 159.098 46.7591 159.098 45.5453V43.879C157.941 45.4425 156.318 46.2242 154.228 46.2242C152.078 46.2242 150.272 45.4631 148.811 43.9408C147.371 42.3979 146.651 40.5259 146.651 38.3248C146.651 36.1442 147.381 34.2825 148.842 32.7396C150.303 31.1968 152.098 30.4253 154.228 30.4253C156.318 30.4253 157.941 31.2071 159.098 32.7705V30.8573ZM151.763 41.3796C152.575 42.1613 153.6 42.5522 154.837 42.5522C156.075 42.5522 157.089 42.1613 157.88 41.3796C158.692 40.5773 159.098 39.559 159.098 38.3248C159.098 37.111 158.692 36.1133 157.88 35.3316C157.089 34.5293 156.075 34.1282 154.837 34.1282C153.6 34.1282 152.575 34.5293 151.763 35.3316C150.972 36.1133 150.577 37.111 150.577 38.3248C150.577 39.559 150.972 40.5773 151.763 41.3796Z" fill="#011635"/>
<path d="M169.429 40.2071C169.957 42.1408 171.387 43.1076 173.72 43.1076C175.221 43.1076 176.358 42.5933 177.129 41.5648L180.294 43.4162C178.792 45.6173 176.581 46.7179 173.659 46.7179C171.143 46.7179 169.125 45.9465 167.603 44.4036C166.081 42.8608 165.321 40.9168 165.321 38.5716C165.321 36.2471 166.071 34.3133 167.573 32.7705C169.074 31.2071 171.001 30.4253 173.355 30.4253C175.587 30.4253 177.423 31.2071 178.863 32.7705C180.324 34.3339 181.054 36.2676 181.054 38.5716C181.054 39.0859 181.004 39.6311 180.902 40.2071H169.429ZM169.368 37.1213H177.129C176.905 36.0722 176.439 35.2905 175.729 34.7762C175.039 34.2619 174.248 34.0048 173.355 34.0048C172.3 34.0048 171.427 34.2825 170.738 34.8379C170.048 35.3728 169.591 36.1339 169.368 37.1213Z" fill="#011635"/>
<path d="M196.47 35.0848C198.337 36.175 199.27 37.8208 199.27 40.0219C199.27 41.8528 198.631 43.3545 197.353 44.5271C196.075 45.6996 194.502 46.2859 192.636 46.2859H183.597V24.6859H191.997C193.823 24.6859 195.355 25.2619 196.592 26.4139C197.85 27.5453 198.479 28.9956 198.479 30.7648C198.479 32.5545 197.809 33.9945 196.47 35.0848ZM191.997 28.6665H187.797V33.4185H191.997C192.646 33.4185 193.184 33.1922 193.61 32.7396C194.056 32.2871 194.279 31.7213 194.279 31.0425C194.279 30.3636 194.066 29.7979 193.64 29.3453C193.214 28.8928 192.666 28.6665 191.997 28.6665ZM192.636 42.3053C193.346 42.3053 193.934 42.0688 194.401 41.5956C194.868 41.1019 195.101 40.4848 195.101 39.7442C195.101 39.0242 194.868 38.4276 194.401 37.9545C193.934 37.4608 193.346 37.2139 192.636 37.2139H187.797V42.3053H192.636Z" fill="#011635"/>
<path d="M205.015 40.2071C205.543 42.1408 206.973 43.1076 209.307 43.1076C210.808 43.1076 211.944 42.5933 212.715 41.5648L215.88 43.4162C214.379 45.6173 212.167 46.7179 209.246 46.7179C206.73 46.7179 204.711 45.9465 203.189 44.4036C201.668 42.8608 200.907 40.9168 200.907 38.5716C200.907 36.2471 201.658 34.3133 203.159 32.7705C204.66 31.2071 206.588 30.4253 208.941 30.4253C211.173 30.4253 213.009 31.2071 214.45 32.7705C215.91 34.3339 216.641 36.2676 216.641 38.5716C216.641 39.0859 216.59 39.6311 216.489 40.2071H205.015ZM204.955 37.1213H212.715C212.492 36.0722 212.025 35.2905 211.315 34.7762C210.625 34.2619 209.834 34.0048 208.941 34.0048C207.886 34.0048 207.014 34.2825 206.324 34.8379C205.634 35.3728 205.178 36.1339 204.955 37.1213Z" fill="#011635"/>
<path d="M222.199 40.2071C222.727 42.1408 224.157 43.1076 226.49 43.1076C227.992 43.1076 229.128 42.5933 229.899 41.5648L233.064 43.4162C231.563 45.6173 229.351 46.7179 226.43 46.7179C223.914 46.7179 221.895 45.9465 220.373 44.4036C218.852 42.8608 218.091 40.9168 218.091 38.5716C218.091 36.2471 218.842 34.3133 220.343 32.7705C221.844 31.2071 223.772 30.4253 226.125 30.4253C228.357 30.4253 230.193 31.2071 231.634 32.7705C233.094 34.3339 233.825 36.2676 233.825 38.5716C233.825 39.0859 233.774 39.6311 233.673 40.2071H222.199ZM222.139 37.1213H229.899C229.676 36.0722 229.209 35.2905 228.499 34.7762C227.809 34.2619 227.018 34.0048 226.125 34.0048C225.07 34.0048 224.198 34.2825 223.508 34.8379C222.818 35.3728 222.362 36.1339 222.139 37.1213Z" fill="#011635"/>
<path d="M22.4016 54.0092C22.9894 55.0407 23.2834 55.5565 23.6824 55.9445C24.1416 56.391 24.7022 56.7174 25.3154 56.895C25.8482 57.0494 26.4383 57.0482 27.6183 57.0457C29.0706 57.0427 30.0954 57.0405 30.92 56.9727C30.9549 56.9699 30.9881 56.9671 31.0197 56.9645C31.3148 56.9394 31.4695 56.9182 31.5471 56.8246C31.6165 56.7411 31.6393 56.6056 31.6012 56.5037C31.5539 56.3772 31.3749 56.2971 31.0167 56.1368C27.6542 54.6322 24.459 52.7731 21.4846 50.5906C21.1676 50.3581 21.0092 50.2418 20.8769 50.2638C20.7703 50.2815 20.6654 50.3692 20.6283 50.4716C20.5823 50.5985 20.6599 50.7634 20.815 51.0933C20.8162 51.0959 20.8174 51.0984 20.8186 51.101C21.1724 51.8525 21.6815 52.7458 22.4016 54.0092Z" fill="#011635"/>
<path d="M20.339 45.8285C20.2912 45.7874 20.27 45.7228 20.2852 45.6613C20.5646 44.5263 21.1813 43.4494 22.4147 41.2957C22.4525 41.2297 22.5404 41.2143 22.5982 41.2634C27.306 45.2625 32.679 48.3898 38.4682 50.5003C38.5396 50.5263 38.5705 50.6112 38.5325 50.6775C37.2992 52.8312 36.6825 53.9081 35.8473 54.7196C35.8034 54.7622 35.7393 54.7757 35.6819 54.7551C30.0735 52.7409 24.8748 49.7162 20.339 45.8285Z" fill="#011635"/>
<path d="M24.2314 38.1318C24.155 38.2584 24.1168 38.3217 24.1083 38.3906C24.101 38.45 24.1112 38.5141 24.1366 38.5682C24.1661 38.631 24.2232 38.68 24.3375 38.7781C28.8867 42.6839 34.1043 45.7207 39.7341 47.7393C39.8755 47.79 39.9462 47.8154 40.0148 47.8097C40.074 47.8048 40.1342 47.7816 40.1816 47.7456C40.2366 47.7037 40.2718 47.6387 40.3423 47.5087C40.4944 47.2283 40.5874 47.025 40.6445 46.8127C40.7239 46.5173 40.752 46.2103 40.7275 45.9052C40.7 45.5609 40.5812 45.222 40.3437 44.5441L38.541 39.3983C37.9624 37.7467 37.6731 36.9208 37.1398 36.3598C36.6697 35.8653 36.0697 35.516 35.4099 35.3529C34.6614 35.1678 33.8073 35.3281 32.0992 35.6487L26.7776 36.6476C26.0766 36.7792 25.7261 36.845 25.4166 36.9931C25.1423 37.1243 24.8926 37.3023 24.6786 37.5193C24.5247 37.6754 24.3964 37.8585 24.2314 38.1318Z" fill="#011635"/>
<path d="M47.2111 26.5145C45.8728 28.8515 42.9086 29.6523 40.5906 28.303C38.2725 26.9537 37.4782 23.9653 38.8166 21.6283C40.1549 19.2912 43.1191 18.4905 45.4371 19.8398C47.7552 21.1891 48.5494 24.1775 47.2111 26.5145Z" fill="#011635"/>
<path d="M40.6851 34.8369L45.3875 49.4383C46.0696 51.5562 47.5285 53.0956 49.2898 53.9414C52.0143 55.2499 55.4626 54.8988 57.8786 52.4631C61.1807 49.134 60.6824 43.6818 57.0196 40.9767C56.7976 40.8127 56.5639 40.6589 56.3188 40.5162L43.132 32.8397C41.794 32.0607 40.2079 33.3553 40.6851 34.8369Z" fill="#011635"/>
<path d="M34.9261 31.4841L20.0323 34.6791C17.8721 35.1425 15.8205 34.6385 14.2134 33.5238C11.7269 31.7992 10.3041 28.6128 11.1884 25.2853C12.3971 20.7375 17.3301 18.4465 21.4853 20.2924C21.7369 20.4042 21.9857 20.5312 22.2307 20.6737L35.4182 28.3491C36.7563 29.1279 36.4373 31.1599 34.9261 31.4841Z" fill="#011635"/>
<path fill-rule="evenodd" clip-rule="evenodd" d="M55.1992 28.2278L52.5037 23.5207C50.832 20.6016 49.9962 19.142 48.8268 18.0805C47.7921 17.1413 46.5732 16.4318 45.2491 15.998C43.7526 15.5078 42.0809 15.5078 38.7376 15.5078L33.3464 15.5078C30.0031 15.5078 28.3314 15.5078 26.8349 15.998C25.5108 16.4318 24.2919 17.1413 23.2572 18.0805C22.6308 18.6492 22.1 19.3321 21.4853 20.2924C21.7369 20.4042 21.9857 20.5312 22.2307 20.6737L35.4182 28.3491C36.7563 29.1279 36.4373 31.1599 34.9261 31.4841L20.0323 34.6791C17.8721 35.1425 15.8205 34.6385 14.2134 33.5238C14.1489 33.7362 14.0948 33.9463 14.0501 34.1582C13.7606 35.5312 13.7606 36.9501 14.0501 38.3231C14.3772 39.8748 15.2131 41.3344 16.8848 44.2535L19.5803 48.9606C20.0505 49.7816 20.4546 50.4873 20.8186 51.101L20.815 51.0933C20.6599 50.7634 20.5823 50.5985 20.6283 50.4716C20.6654 50.3692 20.7703 50.2815 20.8769 50.2638C21.0092 50.2418 21.1676 50.3581 21.4846 50.5906C24.459 52.7731 27.6542 54.6322 31.0167 56.1368C31.3749 56.2971 31.5539 56.3772 31.6012 56.5037C31.6393 56.6056 31.6165 56.7411 31.5471 56.8246C31.4695 56.9182 31.3148 56.9394 31.0197 56.9645C31.6971 56.9735 32.4634 56.9735 33.3464 56.9735H38.7376C42.0809 56.9735 43.7526 56.9735 45.2491 56.4833C46.5732 56.0495 47.7921 55.34 48.8268 54.4008C48.9863 54.256 49.1397 54.1038 49.2898 53.9414C47.5285 53.0956 46.0696 51.5562 45.3875 49.4383L40.6851 34.8369C40.2079 33.3553 41.794 32.0607 43.132 32.8397L56.3188 40.5162C56.5639 40.6589 56.7976 40.8127 57.0196 40.9767C57.5373 39.9595 57.8586 39.1546 58.0339 38.3231C58.3234 36.9501 58.3234 35.5312 58.0339 34.1582C57.7272 32.7035 56.9734 31.3297 55.503 28.7585C55.405 28.5871 55.3037 28.4102 55.1992 28.2278ZM22.4147 41.2957C21.1813 43.4494 20.5646 44.5263 20.2852 45.6613C20.27 45.7228 20.2912 45.7874 20.339 45.8285C24.8748 49.7162 30.0735 52.7409 35.6819 54.7551C35.7393 54.7757 35.8034 54.7622 35.8473 54.7196C36.6825 53.9081 37.2992 52.8312 38.5325 50.6775C38.5705 50.6112 38.5396 50.5263 38.4682 50.5003C32.679 48.3898 27.306 45.2625 22.5982 41.2634C22.5404 41.2143 22.4525 41.2297 22.4147 41.2957ZM24.3375 38.7781C28.8867 42.6839 34.1043 45.7207 39.7341 47.7393C39.8755 47.79 39.9462 47.8154 40.0148 47.8097C40.074 47.8048 40.1342 47.7816 40.1816 47.7456C40.2366 47.7037 40.2718 47.6387 40.3423 47.5087C40.4944 47.2283 40.5874 47.025 40.6445 46.8127C40.7239 46.5173 40.752 46.2103 40.7275 45.9052C40.7 45.5609 40.5812 45.222 40.3437 44.5441L38.541 39.3983C37.9624 37.7467 37.6731 36.9208 37.1398 36.3598C36.6697 35.8653 36.0697 35.516 35.4099 35.3529C34.6614 35.1678 33.8073 35.3281 32.0992 35.6487L26.7776 36.6476C26.0766 36.7792 25.7261 36.845 25.4166 36.9931C25.1423 37.1243 24.8926 37.3023 24.6786 37.5193C24.5247 37.6754 24.3964 37.8585 24.2314 38.1318C24.155 38.2584 24.1168 38.3217 24.1083 38.3906C24.101 38.45 24.1112 38.5141 24.1366 38.5682C24.1661 38.631 24.2232 38.68 24.3375 38.7781ZM40.5906 28.303C42.9086 29.6523 45.8728 28.8515 47.2111 26.5145C48.5494 24.1775 47.7552 21.1891 45.4371 19.8398C43.1191 18.4905 40.1549 19.2912 38.8166 21.6283C37.4782 23.9653 38.2725 26.9537 40.5906 28.303Z" fill="#FFC72C"/>
</svg>
