<?xml version="1.0" encoding="UTF-8" standalone="no"?><!DOCTYPE svg PUBLIC "-//W3C//DTD SVG 1.1//EN" "http://www.w3.org/Graphics/SVG/1.1/DTD/svg11.dtd"><svg width="100%" height="100%" viewBox="0 0 1084 250" version="1.1" xmlns="http://www.w3.org/2000/svg" xmlns:xlink="http://www.w3.org/1999/xlink" xml:space="preserve" xmlns:serif="http://www.serif.com/" style="fill-rule:evenodd;clip-rule:evenodd;stroke-linejoin:round;stroke-miterlimit:2;"><g><g><path d="M362.521,94.829l-24.104,4.904c-1.496,-8.313 -8.968,-14.317 -17.409,-13.987c-8.187,-0 -13.391,4.462 -13.391,10.117c-0,4.02 1.779,6.991 8.029,8.333l20.687,4.617c17.259,3.866 27.38,13.245 27.38,29.012c-0,21.283 -18.9,32.292 -41.071,32.292c-22.467,-0 -40.917,-10.717 -43.592,-30.204l25.296,-4.913c1.753,9.195 10.319,15.62 19.637,14.729c9.23,0 14.738,-4.166 14.738,-10.266c-0,-4.463 -2.083,-7.288 -9.229,-8.78l-20.834,-4.462c-14.283,-3.275 -26.783,-10.713 -26.783,-28.863c0,-19.346 16.071,-31.4 39.433,-31.4c21.721,0 37.492,10.717 41.213,28.871Z" style="fill:#fff;fill-rule:nonzero;"/><path d="M428.463,164.617c-6.19,3.6 -13.223,5.498 -20.384,5.5c-18.604,-0 -29.758,-10.117 -29.758,-29.763l-0,-28.267l-13.546,0l0,-18.9l13.529,0l0,-25l23.804,0l0,25l22.03,0l-0,18.9l-22.025,0l-0,25.892c-0,7.738 3.72,10.863 9.97,10.863c3.804,-0.129 7.525,-1.15 10.863,-2.98l5.517,18.755Z" style="fill:#fff;fill-rule:nonzero;"/><path d="M488.596,92.742l-1.046,23.812l-4.308,0c-16.667,0 -25.746,8.625 -25.746,27.975l-0,23.363l-23.804,-0l-0,-74.7l23.804,-0l-0,14.287c5.04,-9.501 14.991,-15.427 25.746,-15.333c1.803,-0.037 3.603,0.163 5.354,0.596Z" style="fill:#fff;fill-rule:nonzero;"/><path d="M560.925,120.571l-0,47.321l-22.917,-0l0,-5.509c-6.228,5.244 -14.183,8.002 -22.321,7.738c-16.666,-0 -27.829,-9.671 -27.829,-24.4c0,-14.584 11.163,-24.104 31.1,-24.104l19.046,-0l0,-1.488c0.008,-0.159 0.012,-0.318 0.012,-0.477c-0,-5.463 -4.496,-9.959 -9.959,-9.959c-0.205,0 -0.41,0.007 -0.615,0.02c-7.146,-0 -11.309,2.833 -12.5,9.375l-22.467,-4.613c3.275,-14.433 16.362,-23.508 34.225,-23.508c20.992,-0.004 34.225,10.558 34.225,29.604Zm-22.917,17.854l0,-1.633l-16.362,-0c-5.959,-0 -9.679,3.125 -9.679,7.737c-0,4.758 4.166,7.738 10.416,7.738c0.34,0.023 0.68,0.035 1.02,0.035c7.742,0 14.212,-6.145 14.609,-13.877l-0.004,0Z" style="fill:#fff;fill-rule:nonzero;"/><path d="M647.692,122.063l-0,45.833l-23.659,-0l0,-40.767c0,-8.779 -5.212,-14.737 -12.804,-14.737c-9.371,-0 -15.471,6.4 -15.471,20.833l0,34.671l-23.804,-0l0,-74.704l23.804,-0l0,7.145c5.99,-6.188 14.308,-9.589 22.917,-9.37c17.412,-0.005 29.017,12.341 29.017,31.096Z" style="fill:#fff;fill-rule:nonzero;"/><path d="M738.625,169.375c0,23.063 -19.642,35.712 -43.896,35.712c-17.112,0 -30.054,-5.95 -37.35,-18l19.796,-12.2c5.5,6.692 9.817,9.221 17.554,9.221c10.717,0 20.092,-5.354 20.092,-17.112l-0,-5.059c-6.424,5.565 -14.724,8.49 -23.217,8.184c-19.792,-0 -36.454,-15.921 -36.454,-39.584c-0,-23.508 16.667,-39.583 36.454,-39.583c8.492,-0.305 16.792,2.619 23.217,8.179l-0,-5.95l23.804,0l0,76.192Zm-23.804,-38.833c0.009,-0.239 0.014,-0.477 0.014,-0.716c-0,-10.103 -8.216,-18.461 -18.318,-18.634c-10.078,0.74 -17.976,9.238 -17.976,19.343c0,10.106 7.898,18.604 17.976,19.344c10.087,-0.12 18.321,-8.452 18.321,-18.54c-0,-0.266 -0.006,-0.532 -0.017,-0.797Z" style="fill:#fff;fill-rule:nonzero;"/><path d="M825.254,136.646l-54.758,-0c1.368,8.3 8.616,14.451 17.028,14.451c6.168,0 11.884,-3.306 14.959,-8.651l21.13,4.308c-6.4,15.775 -19.938,23.363 -37.05,23.363c-21.688,-0.04 -39.511,-17.896 -39.511,-39.584c0,-21.714 17.869,-39.583 39.583,-39.583c0.025,-0 0.049,-0 0.073,-0c21.129,-0 38.092,15.171 38.542,39.583l0.004,6.113Zm-54.316,-14.583l30.804,-0c-1.518,-7 -7.87,-11.97 -15.029,-11.759c-7.269,-0.028 -13.726,4.785 -15.775,11.759Z" style="fill:#fff;fill-rule:nonzero;"/><path d="M899.225,117.004c9.221,0.742 19.196,7.883 19.196,22.917c-0,16.516 -11.163,27.975 -32.888,27.975l-51.779,-0l0,-99.7l51.634,-0c18.304,-0 30.2,10.862 30.2,27.229c0.695,10.094 -6.404,19.196 -16.363,20.979l0,0.6Zm-40.921,-7.587l21.429,-0c0.367,0.037 0.735,0.055 1.104,0.055c6.009,0 10.954,-4.945 10.954,-10.954c-0,-0.088 -0.001,-0.176 -0.003,-0.264c-0.021,-5.656 -4.681,-10.299 -10.338,-10.299c-0.275,-0 -0.551,0.011 -0.825,0.033l-22.317,-0l-0.004,21.429Zm22.917,38.687c7.892,0 12.208,-4.317 12.208,-11.162c0.001,-0.053 0.001,-0.105 0.001,-0.158c0,-5.824 -4.792,-10.617 -10.616,-10.617c-0.382,0 -0.764,0.021 -1.143,0.062l-23.363,0l0,21.871l22.913,0.004Z" style="fill:#fff;fill-rule:nonzero;"/><path d="M1001.63,136.646l-54.771,-0c1.369,8.3 8.617,14.451 17.029,14.451c6.167,0 11.883,-3.306 14.959,-8.651l21.129,4.308c-6.4,15.775 -19.937,23.363 -37.05,23.363c-21.686,-0.041 -39.508,-17.897 -39.508,-39.584c-0,-21.714 17.868,-39.583 39.583,-39.583c0.025,-0 0.05,-0 0.075,-0c21.125,-0 38.092,15.171 38.542,39.583l0.012,6.113Zm-54.329,-14.583l30.817,-0c-1.518,-7 -7.87,-11.97 -15.029,-11.759c-7.273,-0.034 -13.738,4.781 -15.788,11.759Z" style="fill:#fff;fill-rule:nonzero;"/><path d="M1083.33,136.646l-54.758,-0c1.368,8.3 8.616,14.451 17.029,14.451c6.167,0 11.883,-3.306 14.959,-8.651l21.129,4.308c-6.4,15.775 -19.938,23.363 -37.05,23.363c-21.687,-0.041 -39.509,-17.897 -39.509,-39.584c0,-21.714 17.869,-39.583 39.584,-39.583c0.025,-0 0.05,-0 0.075,-0c21.125,-0 38.091,15.171 38.541,39.583l0,6.113Zm-54.316,-14.583l30.804,-0c-1.518,-7 -7.87,-11.97 -15.029,-11.759c-7.269,-0.03 -13.727,4.784 -15.775,11.759Z" style="fill:#fff;fill-rule:nonzero;"/></g><g><ellipse cx="127" cy="125" rx="127" ry="125" style="fill:#0f1225;"/><path d="M157.183,80.542l-60.354,-0c-4.901,-0 -8.933,-4.033 -8.933,-8.934c-0,-4.9 4.032,-8.933 8.933,-8.933l60.354,0c4.901,0 8.934,4.033 8.934,8.933c-0,4.901 -4.033,8.934 -8.934,8.934Z" style="fill:#48b9b7;fill-rule:nonzero;"/><path d="M174.046,160.625l-94.096,0c-4.901,0 -8.933,-4.033 -8.933,-8.933c-0,-4.901 4.032,-8.934 8.933,-8.934l94.096,0c4.901,0 8.933,4.033 8.933,8.934c0,4.9 -4.032,8.933 -8.933,8.933Z" style="fill:#f8c417;fill-rule:nonzero;"/><path d="M157.183,187.321l-60.354,-0c-4.901,-0 -8.933,-4.033 -8.933,-8.933c-0,-4.901 4.032,-8.934 8.933,-8.934l60.354,0c4.901,0 8.934,4.033 8.934,8.934c-0,4.9 -4.033,8.933 -8.934,8.933Z" style="fill:#48b9b7;fill-rule:nonzero;"/><path d="M190.933,115.85l-127.866,0c-4.901,0 -8.934,4.033 -8.934,8.933c0,4.901 4.033,8.934 8.934,8.934l70.871,-0c2.361,1.001 4.051,3.148 4.47,5.679l1.567,9.767c0.585,3.65 3.766,6.362 7.463,6.362c3.78,0 7.008,-2.835 7.495,-6.583l1.217,-9.325c0.352,-2.618 2.062,-4.864 4.492,-5.9l30.291,-0c4.901,-0 8.934,-4.033 8.934,-8.934c-0,-4.9 -4.033,-8.933 -8.934,-8.933Z" style="fill:#48b9b7;fill-rule:nonzero;"/><path d="M174.046,89.229l-94.096,0c-4.901,0 -8.933,4.033 -8.933,8.933c-0,4.901 4.032,8.934 8.933,8.934l30.333,-0c3.306,0.001 6.13,2.48 6.559,5.758l1.062,8.163c0.432,3.276 3.256,5.751 6.56,5.751c3.233,0 6.016,-2.369 6.532,-5.56l1.371,-8.55c0.513,-3.194 3.298,-5.567 6.533,-5.566l35.146,-0c4.901,-0 8.933,-4.033 8.933,-8.934c0,-4.9 -4.032,-8.933 -8.933,-8.933c-0,0 -0,0.004 -0,0.004Z" style="fill:#f8c417;fill-rule:nonzero;"/></g></g></svg>