<?xml version="1.0" encoding="UTF-8" standalone="no"?>
<!DOCTYPE svg PUBLIC "-//W3C//DTD SVG 1.1//EN" "http://www.w3.org/Graphics/SVG/1.1/DTD/svg11.dtd">
<svg width="100%" height="100%" viewBox="0 0 800 180" version="1.1" xmlns="http://www.w3.org/2000/svg" xmlns:xlink="http://www.w3.org/1999/xlink" xml:space="preserve" xmlns:serif="http://www.serif.com/" style="fill-rule:evenodd;clip-rule:evenodd;stroke-linecap:round;stroke-miterlimit:10;">
    <g transform="matrix(1,0,0,1,-2.63026,-50.7811)">
        <g transform="matrix(1.08411,0,0,1.08411,222.615,165.296)">
            <path d="M0,-56.749L0,21.393L-24.365,21.393L-24.365,-56.749L-56.602,-56.749L-56.602,-78.142L32.236,-78.142L32.236,-56.749L0,-56.749Z" style="fill:white;fill-rule:nonzero;"/>
        </g>
        <g transform="matrix(1.08411,0,0,1.08411,350.997,122.136)">
            <path d="M0,15.448L0,61.205L-23.619,61.205L-23.619,20.5C-23.619,11.735 -28.818,5.793 -36.545,5.793C-45.754,5.793 -51.846,12.179 -51.846,26.59L-51.846,61.205L-75.615,61.205L-75.615,-45.757L-51.846,-45.757L-51.846,-6.241C-46.053,-12.183 -38.328,-15.6 -28.818,-15.6C-11.586,-15.6 0,-3.27 0,15.448" style="fill:white;fill-rule:nonzero;"/>
        </g>
        <g transform="matrix(1.08411,0,0,1.08411,398.825,157.245)">
            <path d="M0,-16.937L30.75,-16.937C28.521,-24.958 22.58,-28.672 15.746,-28.672C9.061,-28.672 2.229,-24.513 0,-16.937M54.221,-2.377L-0.449,-2.377C1.484,6.536 7.576,12.033 15.598,12.033C21.094,12.033 27.482,10.696 31.494,3.417L52.586,7.725C46.201,23.472 32.682,31.048 15.598,31.048C-5.945,31.048 -23.771,15.152 -23.771,-8.469C-23.771,-31.94 -5.945,-47.985 15.746,-47.985C36.842,-47.985 53.777,-32.832 54.221,-8.469L54.221,-2.377Z" style="fill:white;fill-rule:nonzero;"/>
        </g>
        <g transform="matrix(1.08411,0,0,1.08411,571.356,80.5814)">
            <path d="M0,99.535L-24.363,99.535L-24.363,60.167L-66.258,60.167L-66.258,99.535L-90.77,99.535L-90.77,0L-66.258,0L-66.258,38.775L-24.363,38.775L-24.363,0L0,0L0,99.535Z" style="fill:rgb(243,208,45);fill-rule:nonzero;"/>
        </g>
        <g transform="matrix(1.08411,0,0,1.08411,-242.714,-339.497)">
            <path d="M764.215,412.445L787.983,412.445L787.983,487.021L764.215,487.021L764.215,412.445ZM789.914,390.458C789.914,398.035 784.121,403.68 776.098,403.68C768.076,403.68 762.43,398.035 762.43,390.458C762.43,383.179 768.076,376.94 776.098,376.94C784.121,376.94 789.914,383.179 789.914,390.458" style="fill:rgb(243,208,45);fill-rule:nonzero;"/>
        </g>
        <g transform="matrix(1.08411,0,0,1.08411,677.347,107.478)">
            <path d="M0,74.725L-24.215,74.725L-55.115,0L-30.008,0L-12.031,46.054L5.795,0L30.902,0L0,74.725Z" style="fill:rgb(243,208,45);fill-rule:nonzero;"/>
        </g>
        <g transform="matrix(1.08411,0,0,1.08411,733.161,157.245)">
            <path d="M0,-16.937L30.752,-16.937C28.523,-24.958 22.582,-28.672 15.748,-28.672C9.063,-28.672 2.23,-24.513 0,-16.937M54.225,-2.377L-0.445,-2.377C1.486,6.536 7.578,12.033 15.6,12.033C21.096,12.033 27.484,10.696 31.496,3.417L52.588,7.725C46.203,23.472 32.684,31.048 15.6,31.048C-5.941,31.048 -23.77,15.152 -23.77,-8.469C-23.77,-31.94 -5.941,-47.985 15.748,-47.985C36.842,-47.985 53.779,-32.832 54.225,-8.469L54.225,-2.377Z" style="fill:rgb(243,208,45);fill-rule:nonzero;"/>
        </g>
        <g transform="matrix(1.08411,0,0,1.08411,123.952,124.632)">
            <path d="M0,63.064C-1.73,63.921 -3.746,64.203 -5.473,64.197C-11.234,64.179 -16.406,60.71 -18.691,55.227L-22.689,45.712L-28.687,30.721C-28.686,30.142 -28.973,29.564 -29.258,28.988L-37.541,8.226C-24.301,10.575 0.129,24.764 8.127,44.085C10.98,51.872 7.498,60.21 0,63.064M-44.998,85.377C-54.498,85.347 -62.248,78.408 -65.385,67.744L-24.492,67.879C-27.695,78.812 -35.49,85.412 -44.998,85.377M-84.381,63.938C-86.395,63.933 -88.121,63.639 -89.846,62.767C-97.035,59.576 -100.748,51.214 -97.557,44.025C-89.43,24.468 -64.906,10.439 -51.654,8.466L-60.359,29.75L-66.752,45.566L-70.816,55.054C-73.422,60.518 -78.613,63.957 -84.381,63.938M-49.412,26.905L-44.766,15.689L-40.193,26.933L-49.412,26.905ZM-55.799,42.723L-53.186,36.109L-36.482,36.165L-33.91,42.794L-55.799,42.723ZM-59.859,52.212L-30.199,52.312L-27.629,58.942L-62.473,58.825L-59.859,52.212ZM-44.639,-22.323C-36.863,-22.297 -30.266,-14.788 -30.289,-8.739C-30.311,-1.54 -42.119,-1.005 -44.422,-1.014C-47.01,-1.022 -58.531,-1.346 -58.508,-8.832C-59.061,-14.883 -52.414,-22.348 -44.639,-22.323" style="fill:rgb(243,208,45);fill-rule:nonzero;"/>
        </g>
        <g transform="matrix(-0.461947,-0.980766,-0.980766,0.461947,64.9968,86.5883)">
            <path d="M-7.979,5.062L3.211,5.062" style="fill:none;fill-rule:nonzero;stroke:rgb(243,208,45);stroke-width:5.66px;"/>
        </g>
        <g transform="matrix(0.462106,-0.980691,-0.980691,-0.462106,93.5081,95.9425)">
            <path d="M-3.21,5.062L7.98,5.062" style="fill:none;fill-rule:nonzero;stroke:rgb(243,208,45);stroke-width:5.66px;"/>
        </g>
        <g transform="matrix(1.08411,0,0,1.08411,123.732,64.3717)">
            <path d="M0,72.284L12.668,49.542L-16.053,0L-73.133,0L-101.852,49.542L-88.066,72.284" style="fill:none;fill-rule:nonzero;stroke:rgb(243,208,45);stroke-width:5.66px;stroke-linejoin:round;"/>
        </g>
    </g>
</svg>
