<?xml version="1.0" encoding="UTF-8" standalone="no"?>
<!DOCTYPE svg PUBLIC "-//W3C//DTD SVG 1.1//EN" "http://www.w3.org/Graphics/SVG/1.1/DTD/svg11.dtd">
<svg width="100%" height="100%" viewBox="0 0 300 300" version="1.1" xmlns="http://www.w3.org/2000/svg" xmlns:xlink="http://www.w3.org/1999/xlink" xml:space="preserve" xmlns:serif="http://www.serif.com/" style="fill-rule:evenodd;clip-rule:evenodd;stroke-linejoin:round;stroke-miterlimit:2;">
    <g transform="matrix(1,0,0,1,-28.193,-30.2316)">
        <g>
            <g transform="matrix(0,-0.62255,-0.622549,0,178.193,30.2313)">
                <path d="M-240.945,-240.945C-374.015,-240.945 -481.89,-133.07 -481.89,-0C-481.89,133.07 -374.015,240.945 -240.945,240.945C-107.875,240.945 -0.001,133.07 -0.001,-0C-0.001,-133.07 -107.875,-240.945 -240.945,-240.945" style="fill:rgb(243,208,45);fill-rule:nonzero;"/>
            </g>
            <g transform="matrix(0.622549,0,0,0.62255,236.709,162.778)">
                <path d="M0,132.331C-3.63,134.129 -7.859,134.72 -11.483,134.709C-23.572,134.67 -34.426,127.391 -39.222,115.887L-47.609,95.923L-60.196,64.466C-60.191,63.251 -60.794,62.038 -61.394,60.829L-78.772,17.261C-50.991,22.192 0.271,51.965 17.054,92.509C23.041,108.846 15.733,126.342 0,132.331M-94.419,179.153C-114.354,179.091 -130.616,164.526 -137.198,142.151L-51.393,142.436C-58.114,165.377 -74.471,179.226 -94.419,179.153M-177.058,134.167C-181.284,134.153 -184.906,133.539 -188.527,131.707C-203.612,125.013 -211.402,107.466 -204.708,92.38C-187.653,51.344 -136.194,21.907 -108.387,17.768L-126.656,62.425L-140.069,95.612L-148.596,115.524C-154.064,126.989 -164.956,134.202 -177.058,134.167M-103.681,56.457L-93.932,32.923L-84.339,56.516L-103.681,56.457ZM-117.082,89.65L-111.601,75.769L-76.551,75.888L-71.154,89.797L-117.082,89.65ZM-125.604,109.56L-63.368,109.77L-57.974,123.684L-131.088,123.437L-125.604,109.56ZM-93.667,-46.839C-77.352,-46.788 -63.507,-31.029 -63.556,-18.338C-63.601,-3.231 -88.379,-2.108 -93.211,-2.128C-98.643,-2.145 -122.816,-2.823 -122.769,-18.534C-123.93,-31.23 -109.981,-46.895 -93.667,-46.839" style="fill:rgb(20,20,50);fill-rule:nonzero;"/>
            </g>
            <g transform="matrix(0.622549,0,0,0.62255,164.131,111.386)">
                <path d="M0,35.028C-2.416,35.028 -4.732,33.661 -5.831,31.329L-15.835,10.087C-17.351,6.869 -15.97,3.03 -12.752,1.513C-9.531,0 -5.695,1.379 -4.18,4.598L5.824,25.842C7.34,29.058 5.959,32.896 2.741,34.414C1.854,34.832 0.92,35.028 0,35.028" style="fill:rgb(20,20,50);fill-rule:nonzero;"/>
            </g>
            <g transform="matrix(0.622549,0,0,0.62255,192.255,111.387)">
                <path d="M0,35.026C-0.921,35.026 -1.855,34.83 -2.743,34.412C-5.962,32.894 -7.341,29.056 -5.824,25.838L4.184,4.594C5.7,1.377 9.539,0 12.757,1.511C15.976,3.028 17.354,6.867 15.838,10.086L5.829,31.33C4.732,33.659 2.415,35.026 0,35.026" style="fill:rgb(20,20,50);fill-rule:nonzero;"/>
            </g>
            <g transform="matrix(0.622549,0,0,0.62255,236.441,86.7207)">
                <path d="M0,163.652C-1.062,163.652 -2.138,163.39 -3.129,162.838C-6.237,161.106 -7.353,157.184 -5.62,154.076L19.179,109.555L-37.39,11.97L-149.739,11.97L-206.226,109.417L-179.279,153.871C-177.434,156.913 -178.405,160.874 -181.447,162.718C-184.488,164.565 -188.451,163.59 -190.295,160.55L-219.223,112.831C-220.444,110.817 -220.47,108.298 -219.287,106.262L-159.023,2.298C-157.871,0.312 -155.748,-0.913 -153.45,-0.913L-33.679,-0.913C-31.38,-0.913 -29.258,0.312 -28.105,2.298L32.161,106.259C33.298,108.225 33.321,110.643 32.215,112.628L5.632,160.346C4.454,162.46 2.262,163.652 0,163.652" style="fill:rgb(20,20,50);fill-rule:nonzero;"/>
            </g>
        </g>
    </g>
</svg>
