<svg id="Layer_1" data-name="Layer 1" xmlns="http://www.w3.org/2000/svg" viewBox="0 0 300 300"><defs><style>.cls-1{fill:#161630;}.cls-2{fill:#55c4c3;}.cls-3{fill:#f2ce31;}</style></defs><title>sb-rounded</title><circle class="cls-1" cx="150" cy="150" r="150"/><path class="cls-2" d="M185.63,96.41H114.37a10.56,10.56,0,0,1,0-21.11h71.26a10.56,10.56,0,1,1,0,21.11Z"/><path class="cls-3" d="M205.57,192.62H94.43a10.55,10.55,0,0,1,0-21.1H205.57a10.55,10.55,0,1,1,0,21.1Z"/><path class="cls-2" d="M185.63,224.7H114.37a10.56,10.56,0,0,1,0-21.11h71.26a10.56,10.56,0,1,1,0,21.11Z"/><path class="cls-2" d="M225.51,139.45h-151a10.55,10.55,0,1,0,0,21.1h83.7a8.87,8.87,0,0,1,5.28,6.71l1.86,11.54c1.63,10.17,16.33,9.95,17.66-.26l1.44-11a8.89,8.89,0,0,1,5.31-7h35.77a10.55,10.55,0,1,0,0-21.1Z"/><path class="cls-3" d="M205.57,107.38H94.43a10.55,10.55,0,0,0,0,21.1h35.83a7.82,7.82,0,0,1,7.75,6.8l1.25,9.65c1.17,8.93,14,9.12,15.46.22l1.63-10.1a7.8,7.8,0,0,1,7.71-6.57h41.51a10.55,10.55,0,1,0,0-21.1Z"/></svg>