<svg width="1001" height="283" viewBox="0 0 1001 283" fill="none" xmlns="http://www.w3.org/2000/svg">
<path d="M68.0438 260.681C36.9658 260.681 32.4021 249.643 30.3808 244.488C28.1632 238.834 22.109 222.68 64.0516 185.185C10.7391 192.007 5.23095 179.727 2.60322 173.865C-12.5568 139.755 51.8226 96.5493 131.109 47.7848L142.126 41.0133L154.91 61.6309L143.844 68.4529C119.284 83.5623 85.6293 104.281 59.9079 124.393C31.1545 146.88 25.8485 158.149 24.9389 162.242C32.1652 163.809 54.8546 164.213 104.327 153.399C156.578 115.752 263.759 51.7769 296.151 61.5298C302.164 63.349 306.611 67.3917 308.683 72.8998C310.351 77.3972 311.361 84.4719 306.763 92.9109C286.651 129.901 163.602 164.82 114.585 175.988C68.2964 209.946 55.2589 228.744 53.5407 234.758C56.7243 236.122 68.6502 239.154 104.327 232.383C187.909 216.515 298.172 169.064 306.763 153.298C313.018 141.818 326.889 143.422 330.21 152.136C332.484 163 327.38 176.442 275.483 201.001C244.759 215.555 204.938 230.462 166.23 241.933C118.628 256.032 88.0044 260.782 68.1954 260.782L68.0438 260.681ZM283.113 84.7751C266.336 87.3523 225.455 105.645 179.267 133.135C233.692 115.6 272.804 96.1451 283.113 84.7751Z" fill="#011A40"/>
<path d="M180.123 40.7616C199.73 40.7616 218.175 40.7616 226.968 44.0463C234.75 46.9267 241.875 51.6768 247.939 57.9429C256.53 66.8368 263.149 79.2174 270.881 94.0236C282.302 115.803 298.927 148.044 292.408 173.917C289.629 184.983 284.323 195.09 279.118 204.995C274.873 213.08 270.679 219.397 263.958 227.633C241.42 255.326 214.385 264.775 187.046 277.004C172.543 283.473 155.817 283.877 141.263 277.51C113.824 265.533 87.1422 255.376 64.6043 227.684C58.6414 220.357 53.8913 213.535 49.4444 204.995C44.2394 195.09 38.9335 184.933 36.1541 173.917C29.4332 147.235 45.7554 116.359 57.6813 94.0236C65.5645 79.3185 71.9317 66.9378 80.6234 57.9935C86.6874 51.7274 93.8631 46.9772 101.595 44.0968C110.387 40.8122 128.832 40.8122 148.439 40.8122H180.073L180.123 40.7616Z" fill="#FFC72C"/>
<path d="M135.26 27.8738L161.942 35.3528C164.671 36.1108 166.844 33.1293 165.378 30.7542L150.572 7.35735C145.771 -0.27316 135.008 -1.23329 128.893 5.38656C121.97 12.916 125.407 25.0945 135.26 27.8738ZM173.716 35.0496C171.089 30.9564 172.352 25.4988 176.445 22.8711C180.538 20.2433 185.996 21.5067 188.624 25.5998C191.251 29.693 189.988 35.1506 185.895 37.7783C181.802 40.4061 176.344 39.1427 173.716 35.0496ZM168.41 45.611L163.761 72.9495C162.043 83.0561 171.594 91.3941 181.347 88.3116C189.937 85.6333 193.677 75.5266 188.826 67.8961L174.02 44.4993C172.504 42.1242 168.865 42.8317 168.41 45.611ZM162.346 45.8637C162.751 43.5897 161.336 41.3662 159.112 40.7598L148.702 37.9805C147.692 37.7278 146.58 37.8794 145.721 38.4353C113.935 58.598 81.392 77.8512 51.2237 100.44C36.2659 111.658 22.4198 123.432 13.1216 134.701C8.47258 140.31 4.48046 146.374 2.20646 152.691C-0.11807 159.159 -0.825535 166.638 2.40859 173.915C5.08685 179.979 12.1615 182.657 18.2255 179.979C24.2895 177.301 26.9678 170.226 24.2895 164.162C24.2895 164.061 24.4368 163.364 25.2959 160.888C26.256 158.21 28.3784 154.572 32.1179 150.074C39.5968 141.029 51.0216 130.507 65.5751 119.592C95.2887 97.3065 127.478 78.7608 158.708 58.9518C159.618 58.3959 160.224 57.4863 160.426 56.4251L162.346 45.8131V45.8637ZM308.084 73C306.725 66.2669 299.999 62.8428 294.794 61.4784C289.993 60.2151 284.788 60.4172 279.988 61.1247C270.285 62.5396 258.107 66.5317 244.968 71.9388C218.438 82.9045 184.834 100.995 152.442 121.158C119.999 141.321 88.1635 163.909 65.1709 184.173C53.7504 194.229 44.0985 204.134 37.6808 213.179C34.4972 217.677 31.7684 222.477 30.1513 227.328C28.5848 232.18 27.8773 238.092 30.1513 243.954C32.5769 250.119 39.4104 252.94 45.665 250.776C52.1666 248.526 52.4496 237.718 53.3766 234.937C53.9324 233.269 55.1958 230.692 57.6214 227.256C62.4725 220.434 70.1231 211.764 80.9878 202.163C102.616 183.112 133.239 161.282 165.025 141.523C196.81 121.765 229.202 104.432 254.064 94.1229C266.647 88.918 276.602 85.8354 283.323 84.8753C285.142 84.6226 286.456 84.5721 287.315 84.5721C290.448 88.5642 295.906 90.2824 300.908 88.4632C308.199 85.7958 309.402 79.5255 308.084 73ZM330.205 152.088C327.931 142.992 322.132 138.137 313.896 135.004C306.518 132.174 298.18 132.427 290.499 133.741C275.035 136.369 256.49 144.403 238.803 153.55C203.177 172.045 166.793 197.766 157.445 205.144C152.24 209.238 151.381 216.767 155.474 221.972C159.567 227.177 167.096 228.036 172.301 223.943C180.639 217.373 215.76 192.511 249.87 174.824C267.102 165.88 282.919 159.311 294.541 157.34C300.403 156.329 303.738 156.734 305.305 157.34C306.012 157.643 306.467 157.795 306.922 159.513C308.488 165.931 315.007 169.872 321.425 168.255C327.843 166.689 331.822 158.505 330.205 152.088Z" fill="url(#paint0_linear_492_30785)"/>
<path d="M936.434 185.799C939.328 196.263 947.176 201.495 959.978 201.495C968.215 201.495 974.449 198.712 978.679 193.146L996.044 203.165C987.807 215.075 975.673 221.031 959.644 221.031C945.84 221.031 934.764 216.857 926.415 208.508C918.067 200.159 913.892 189.639 913.892 176.949C913.892 164.37 918.011 153.907 926.248 145.558C934.486 137.098 945.061 132.868 957.974 132.868C970.219 132.868 980.293 137.098 988.196 145.558C996.211 154.018 1000.22 164.482 1000.22 176.949C1000.22 179.732 999.94 182.682 999.384 185.799H936.434ZM936.1 169.101H978.679C977.454 163.424 974.894 159.194 970.998 156.411C967.213 153.628 962.872 152.237 957.974 152.237C952.185 152.237 947.399 153.74 943.614 156.745C939.829 159.64 937.325 163.758 936.1 169.101Z" fill="#012253"/>
<path d="M887.398 135.205H911.108L879.383 218.693H854.838L823.112 135.205H846.823L867.027 193.647L887.398 135.205Z" fill="#012253"/>
<path d="M801.895 128.359C798.333 128.359 795.216 127.079 792.544 124.519C789.984 121.847 788.704 118.73 788.704 115.168C788.704 111.606 789.984 108.489 792.544 105.817C795.216 103.146 798.333 101.81 801.895 101.81C805.568 101.81 808.685 103.146 811.245 105.817C813.917 108.489 815.253 111.606 815.253 115.168C815.253 118.73 813.917 121.847 811.245 124.519C808.685 127.079 805.568 128.359 801.895 128.359ZM791.208 218.693V135.205H812.748V218.693H791.208Z" fill="#012253"/>
<path d="M747.621 101.81H770.497V218.693H747.621V170.27H704.207V218.693H681.165V101.81H704.207V148.229H747.621V101.81Z" fill="#012253"/>
<path d="M601.341 185.799C604.235 196.263 612.083 201.495 624.885 201.495C633.122 201.495 639.356 198.712 643.586 193.146L660.952 203.165C652.714 215.075 640.581 221.031 624.551 221.031C610.748 221.031 599.671 216.857 591.323 208.508C582.974 200.159 578.8 189.639 578.8 176.949C578.8 164.37 582.918 153.907 591.156 145.558C599.393 137.098 609.968 132.868 622.881 132.868C635.126 132.868 645.2 137.098 653.104 145.558C661.119 154.018 665.126 164.482 665.126 176.949C665.126 179.732 664.848 182.682 664.291 185.799H601.341ZM601.007 169.101H643.586C642.362 163.424 639.801 159.194 635.905 156.411C632.12 153.628 627.779 152.237 622.881 152.237C617.093 152.237 612.306 153.74 608.521 156.745C604.736 159.64 602.232 163.758 601.007 169.101Z" fill="#012253"/>
<path d="M533.19 132.868C542.318 132.868 549.832 135.929 555.732 142.051C561.743 148.174 564.749 156.634 564.749 167.432V218.693H543.209V170.103C543.209 164.537 541.706 160.307 538.701 157.413C535.695 154.408 531.688 152.905 526.678 152.905C521.112 152.905 516.66 154.63 513.32 158.081C509.981 161.532 508.311 166.708 508.311 173.61V218.693H486.771V101.81H508.311V144.556C513.543 136.764 521.836 132.868 533.19 132.868Z" fill="#012253"/>
<path d="M474.909 101.81V123.851H443.351V218.693H420.308V123.851H388.917V101.81H474.909Z" fill="#012253"/>
<defs>
<linearGradient id="paint0_linear_492_30785" x1="50.8101" y1="177.818" x2="878.385" y2="-87.6907" gradientUnits="userSpaceOnUse">
<stop stop-color="#011A40"/>
<stop offset="0.155" stop-color="#023074"/>
<stop offset="0.26" stop-color="#011A40"/>
</linearGradient>
</defs>
</svg>
