<svg width="24" height="24" viewBox="0 0 24 24" fill="none" xmlns="http://www.w3.org/2000/svg">
<path d="M20.9744 6.1588L15.718 0.990997C15.0769 0.375793 14.1795 0.00666095 13.1539 0.00666095H5.58975C3.66666 -0.116387 2 1.48318 2 3.32881V20.5548C2 22.4004 3.53846 24 5.58975 24H18.4103C20.3334 24 22 22.5235 22 20.5548V8.49661C22 7.63531 21.6154 6.77401 20.9744 6.1588ZM8.15385 9.72708H12C12.5129 9.72708 13.0256 10.0962 13.0256 10.7114C13.0256 11.3266 12.641 11.6957 12 11.6957H8.15385C7.64103 11.6957 7.1282 11.3266 7.1282 10.7114C7.1282 10.0962 7.64103 9.72708 8.15385 9.72708ZM15.8461 16.6175H8.15385C7.64103 16.6175 7.1282 16.2484 7.1282 15.6331C7.1282 15.0179 7.51283 14.6488 8.15385 14.6488H15.8461C16.359 14.6488 16.8717 15.0179 16.8717 15.6331C16.8717 16.2484 16.359 16.6175 15.8461 16.6175Z" fill="#1969FF"/>
</svg>
