<?xml version="1.0" encoding="UTF-8" standalone="no"?>
<!DOCTYPE svg PUBLIC "-//W3C//DTD SVG 1.1//EN" "http://www.w3.org/Graphics/SVG/1.1/DTD/svg11.dtd">
<svg width="100%" height="100%" viewBox="0 0 800 400" version="1.1" xmlns="http://www.w3.org/2000/svg" xmlns:xlink="http://www.w3.org/1999/xlink" xml:space="preserve" xmlns:serif="http://www.serif.com/" style="fill-rule:evenodd;clip-rule:evenodd;stroke-linecap:round;stroke-miterlimit:10;">
    <g transform="matrix(1,0,0,1,-195.275,-220.944)">
        <g transform="matrix(1,0,0,1,360.996,534.136)">
            <path d="M0,-56.748L0,21.394L-24.364,21.394L-24.364,-56.748L-56.602,-56.748L-56.602,-78.142L32.236,-78.142L32.236,-56.748L0,-56.748Z" style="fill:rgb(20,20,50);fill-rule:nonzero;"/>
        </g>
        <g transform="matrix(1,0,0,1,479.419,494.324)">
            <path d="M0,15.448L0,61.205L-23.621,61.205L-23.621,20.5C-23.621,11.735 -28.82,5.793 -36.546,5.793C-45.756,5.793 -51.847,12.179 -51.847,26.59L-51.847,61.205L-75.617,61.205L-75.617,-45.757L-51.847,-45.757L-51.847,-6.241C-46.054,-12.183 -38.328,-15.6 -28.82,-15.6C-11.587,-15.6 0,-3.27 0,15.448" style="fill:rgb(20,20,50);fill-rule:nonzero;"/>
        </g>
        <g transform="matrix(1,0,0,1,523.535,526.709)">
            <path d="M0,-16.937L30.751,-16.937C28.522,-24.958 22.58,-28.672 15.746,-28.672C9.061,-28.672 2.229,-24.513 0,-16.937M54.223,-2.377L-0.447,-2.377C1.483,6.536 7.576,12.033 15.598,12.033C21.094,12.033 27.482,10.696 31.494,3.417L52.588,7.725C46.2,23.472 32.683,31.048 15.598,31.048C-5.943,31.048 -23.771,15.152 -23.771,-8.469C-23.771,-31.94 -5.943,-47.985 15.746,-47.985C36.842,-47.985 53.777,-32.832 54.223,-8.469L54.223,-2.377Z" style="fill:rgb(20,20,50);fill-rule:nonzero;"/>
        </g>
        <g transform="matrix(1,0,0,1,682.68,455.994)">
            <path d="M0,99.535L-24.363,99.535L-24.363,60.167L-66.258,60.167L-66.258,99.535L-90.769,99.535L-90.769,0L-66.258,0L-66.258,38.775L-24.363,38.775L-24.363,0L0,0L0,99.535Z" style="fill:rgb(243,208,45);fill-rule:nonzero;"/>
        </g>
        <g transform="matrix(1,0,0,1,0,159.086)">
            <path d="M695.982,321.867L719.752,321.867L719.752,396.443L695.982,396.443L695.982,321.867ZM721.684,299.88C721.684,307.457 715.891,313.102 707.867,313.102C699.846,313.102 694.199,307.457 694.199,299.88C694.199,292.6 699.846,286.361 707.867,286.361C715.891,286.361 721.684,292.6 721.684,299.88" style="fill:rgb(243,208,45);fill-rule:nonzero;"/>
        </g>
        <g transform="matrix(1,0,0,1,780.447,480.804)">
            <path d="M0,74.725L-24.215,74.725L-55.115,0L-30.008,0L-12.031,46.054L5.795,0L30.902,0L0,74.725Z" style="fill:rgb(243,208,45);fill-rule:nonzero;"/>
        </g>
        <g transform="matrix(1,0,0,1,831.932,526.709)">
            <path d="M0,-16.937L30.752,-16.937C28.523,-24.958 22.582,-28.672 15.748,-28.672C9.063,-28.672 2.23,-24.513 0,-16.937M54.225,-2.377L-0.445,-2.377C1.486,6.536 7.578,12.033 15.6,12.033C21.096,12.033 27.484,10.696 31.496,3.417L52.59,7.725C46.201,23.472 32.684,31.048 15.6,31.048C-5.941,31.048 -23.77,15.152 -23.77,-8.469C-23.77,-31.94 -5.941,-47.985 15.748,-47.985C36.844,-47.985 53.779,-32.832 54.225,-8.469L54.225,-2.377Z" style="fill:rgb(243,208,45);fill-rule:nonzero;"/>
        </g>
        <g transform="matrix(1,0,0,1,640.07,339.719)">
            <path d="M0,63.065C-1.73,63.922 -3.746,64.204 -5.473,64.198C-11.234,64.18 -16.406,60.711 -18.691,55.228L-22.689,45.714L-28.687,30.722C-28.686,30.144 -28.973,29.565 -29.258,28.989L-37.541,8.227C-24.301,10.576 0.129,24.765 8.127,44.087C10.98,51.873 7.498,60.211 0,63.065M-44.998,85.379C-54.498,85.349 -62.248,78.409 -65.384,67.745L-24.492,67.88C-27.695,78.814 -35.49,85.413 -44.998,85.379M-84.38,63.939C-86.394,63.934 -88.121,63.64 -89.846,62.768C-97.035,59.577 -100.748,51.215 -97.557,44.025C-89.43,24.469 -64.906,10.44 -51.654,8.468L-60.36,29.751L-66.752,45.567L-70.816,55.056C-73.422,60.519 -78.613,63.957 -84.38,63.939M-49.412,26.906L-44.765,15.69L-40.193,26.934L-49.412,26.906ZM-55.798,42.724L-53.185,36.109L-36.482,36.166L-33.91,42.795L-55.798,42.724ZM-59.859,52.213L-30.199,52.314L-27.629,58.943L-62.472,58.826L-59.859,52.213ZM-44.638,-22.321C-36.863,-22.297 -30.266,-14.787 -30.289,-8.738C-30.311,-1.539 -42.119,-1.004 -44.421,-1.013C-47.01,-1.021 -58.531,-1.345 -58.507,-8.831C-59.061,-14.883 -52.414,-22.348 -44.638,-22.321" style="fill:rgb(243,208,45);fill-rule:nonzero;"/>
        </g>
        <g transform="matrix(-0.426038,-0.904705,-0.904705,0.426038,585.69,304.625)">
            <path d="M-7.98,5.063L3.212,5.063" style="fill:none;fill-rule:nonzero;stroke:rgb(243,208,45);stroke-width:6.14px;"/>
        </g>
        <g transform="matrix(0.426184,-0.904636,-0.904636,-0.426184,611.989,313.254)">
            <path d="M-3.211,5.063L7.981,5.062" style="fill:none;fill-rule:nonzero;stroke:rgb(243,208,45);stroke-width:6.14px;"/>
        </g>
        <g transform="matrix(1,0,0,1,639.867,284.131)">
            <path d="M0,72.287L12.668,49.545L-16.053,0L-73.132,0L-101.852,49.545L-88.066,72.287" style="fill:none;fill-rule:nonzero;stroke:rgb(243,208,45);stroke-width:6.14px;stroke-linejoin:round;"/>
        </g>
    </g>
</svg>
