<svg width="1001" height="678" viewBox="0 0 1001 678" fill="none" xmlns="http://www.w3.org/2000/svg">
<path d="M895.876 620.338C900.611 637.455 913.449 646.013 934.39 646.013C947.865 646.013 958.063 641.461 964.983 632.356L993.39 648.745C979.915 668.229 960.066 677.972 933.844 677.972C911.264 677.972 893.145 671.143 879.487 657.486C865.83 643.828 859.001 626.62 859.001 605.861C859.001 585.284 865.739 568.166 879.214 554.509C892.69 540.67 909.989 533.75 931.112 533.75C951.143 533.75 967.623 540.67 980.552 554.509C993.663 568.348 1000.22 585.466 1000.22 605.861C1000.22 610.413 999.763 615.239 998.853 620.338H895.876ZM895.33 593.023H964.983C962.98 583.736 958.791 576.816 952.418 572.264C946.226 567.711 939.125 565.435 931.112 565.435C921.643 565.435 913.813 567.893 907.622 572.81C901.43 577.544 897.333 584.282 895.33 593.023Z" fill="#012253"/>
<path d="M815.661 537.574H854.448L802.549 674.148H762.397L710.499 537.574H749.286L782.337 633.176L815.661 537.574Z" fill="#012253"/>
<path d="M675.79 526.374C669.963 526.374 664.864 524.28 660.494 520.092C656.305 515.721 654.211 510.623 654.211 504.795C654.211 498.968 656.305 493.869 660.494 489.499C664.864 485.129 669.963 482.944 675.79 482.944C681.799 482.944 686.898 485.129 691.086 489.499C695.457 493.869 697.642 498.968 697.642 504.795C697.642 510.623 695.457 515.721 691.086 520.092C686.898 524.28 681.799 526.374 675.79 526.374ZM658.308 674.148V537.574H693.544V674.148H658.308Z" fill="#012253"/>
<path d="M587.006 482.944H624.427V674.148H587.006V594.935H515.988V674.148H478.293V482.944H515.988V558.879H587.006V482.944Z" fill="#012253"/>
<path d="M347.714 620.338C352.448 637.455 365.286 646.013 386.228 646.013C399.703 646.013 409.9 641.461 416.82 632.356L445.228 648.745C431.752 668.229 411.904 677.972 385.681 677.972C363.101 677.972 344.982 671.143 331.325 657.486C317.668 643.828 310.839 626.62 310.839 605.861C310.839 585.284 317.577 568.166 331.052 554.509C344.527 540.67 361.826 533.75 382.95 533.75C402.981 533.75 419.461 540.67 432.39 554.509C445.501 568.348 452.056 585.466 452.056 605.861C452.056 610.413 451.601 615.239 450.69 620.338H347.714ZM347.168 593.023H416.82C414.817 583.736 410.629 576.816 404.255 572.264C398.064 567.711 390.962 565.435 382.95 565.435C373.481 565.435 365.651 567.893 359.459 572.81C353.268 577.544 349.171 584.282 347.168 593.023Z" fill="#012253"/>
<path d="M236.229 533.75C251.161 533.75 263.453 538.757 273.104 548.773C282.937 558.788 287.854 572.628 287.854 590.291V674.148H252.618V594.662C252.618 585.557 250.16 578.637 245.243 573.902C240.326 568.986 233.771 566.527 225.576 566.527C216.471 566.527 209.187 569.35 203.724 574.995C198.261 580.64 195.53 589.108 195.53 600.398V674.148H160.294V482.944H195.53V552.87C204.089 540.123 217.655 533.75 236.229 533.75Z" fill="#012253"/>
<path d="M140.89 482.944V519H89.2649V674.148H51.5705V519H0.21875V482.944H140.89Z" fill="#012253"/>
<path d="M366.317 357.844C323.59 357.844 317.316 342.668 314.537 335.581C311.488 327.807 303.165 305.599 360.829 254.049C287.533 263.428 279.96 246.545 276.348 238.486C255.505 191.591 344.016 132.19 453.022 65.1472L468.167 55.8376L485.744 84.1832L470.529 93.5623C436.764 114.335 390.494 142.82 355.132 170.471C315.601 201.387 308.306 216.88 307.055 222.507C316.99 224.661 348.184 225.217 416.2 210.349C488.037 158.591 635.392 70.6357 679.926 84.0443C688.193 86.5454 694.307 92.1033 697.155 99.6761C699.448 105.859 700.837 115.586 694.515 127.188C666.864 178.043 497.694 226.05 430.303 241.404C366.665 288.091 348.74 313.936 346.378 322.203C350.755 324.079 367.151 328.247 416.2 318.938C531.111 297.123 682.705 231.886 694.515 210.21C703.115 194.427 722.185 196.632 726.751 208.612C729.878 223.549 722.861 242.03 651.51 275.794C609.27 295.803 554.524 316.298 501.306 332.069C435.861 351.452 393.76 357.983 366.526 357.983L366.317 357.844ZM662.001 116.003C638.936 119.546 582.731 144.696 519.231 182.49C594.055 158.382 647.828 131.634 662.001 116.003Z" fill="#021C44"/>
<path d="M520.408 55.4916C547.364 55.4916 572.722 55.4916 584.81 60.0074C595.51 63.9675 605.305 70.4981 613.642 79.1129C625.453 91.3405 634.554 108.362 645.184 128.718C660.885 158.661 683.742 202.986 674.78 238.557C670.959 253.772 663.664 267.667 656.508 281.284C650.672 292.4 644.906 301.084 635.666 312.409C604.68 350.481 567.511 363.472 529.926 380.285C509.986 389.178 486.99 389.734 466.982 380.98C429.257 364.515 392.574 350.55 361.589 312.478C353.391 302.404 346.86 293.025 340.746 281.284C333.59 267.667 326.295 253.703 322.474 238.557C313.234 201.875 335.675 159.426 352.071 128.718C362.909 108.501 371.662 91.4794 383.612 79.1824C391.949 70.5676 401.814 64.0369 412.444 60.0769C424.533 55.561 449.891 55.561 476.847 55.561H520.338L520.408 55.4916Z" fill="#FFC72C"/>
<path d="M458.729 37.773L495.411 48.0553C499.163 49.0974 502.15 44.9984 500.136 41.7331L479.78 9.56633C473.179 -0.924334 458.381 -2.24435 449.975 6.85682C440.457 17.2085 445.181 33.9519 458.729 37.773ZM511.599 47.6384C507.986 42.011 509.723 34.5077 515.351 30.895C520.978 27.2824 528.481 29.0192 532.094 34.6467C535.707 40.2741 533.97 47.7774 528.342 51.39C522.715 55.0027 515.212 53.2659 511.599 47.6384ZM504.304 62.1586L497.912 99.7444C495.55 113.639 508.681 125.103 522.09 120.865C533.9 117.183 539.041 103.288 532.372 92.7969L512.016 60.6302C509.932 57.3649 504.929 58.3375 504.304 62.1586ZM495.967 62.506C496.523 59.3796 494.578 56.3227 491.521 55.489L477.209 51.6679C475.819 51.3206 474.291 51.529 473.11 52.2932C429.41 80.0136 384.669 106.483 343.192 137.539C322.628 152.962 303.592 169.149 290.809 184.642C284.417 192.354 278.929 200.691 275.802 209.375C272.606 218.268 271.634 228.55 276.08 238.555C279.762 246.892 289.489 250.574 297.826 246.892C306.163 243.209 309.845 233.483 306.163 225.146C306.163 225.007 306.365 224.05 307.546 220.645C308.866 216.963 311.784 211.961 316.925 205.778C327.207 193.342 342.915 178.876 362.923 163.869C403.774 133.231 448.03 107.734 490.965 80.4999C492.216 79.7357 493.049 78.4851 493.327 77.0262L495.967 62.4365V62.506ZM696.332 99.8138C694.463 90.557 685.216 85.8494 678.06 83.9736C671.46 82.2368 664.304 82.5147 657.704 83.4873C644.365 85.4326 627.622 90.9211 609.558 98.3549C573.084 113.431 526.883 138.303 482.35 166.023C437.747 193.744 393.978 224.799 362.367 252.658C346.666 266.483 333.397 280.1 324.573 292.536C320.196 298.72 316.445 305.32 314.222 311.989C312.068 318.659 311.095 326.787 314.222 334.846C317.556 343.322 326.951 347.201 335.55 344.225C344.489 341.133 344.878 326.273 346.152 322.45C346.917 320.157 348.653 316.614 351.988 311.889C358.658 302.51 369.176 290.591 384.113 277.391C413.848 251.199 455.95 221.186 499.649 194.021C543.349 166.857 587.882 143.027 622.064 128.854C639.363 121.698 653.049 117.46 662.289 116.14C664.79 115.793 666.597 115.724 667.778 115.724C672.085 121.212 679.589 123.574 686.466 121.073C696.49 117.406 698.144 108.785 696.332 99.8138ZM726.744 208.546C723.618 196.041 715.646 189.367 704.321 185.059C694.178 181.169 682.715 181.516 672.155 183.322C650.895 186.935 625.398 197.981 601.082 210.556C552.103 235.984 502.081 271.347 489.228 281.49C482.072 287.117 480.891 297.469 486.519 304.625C492.146 311.781 502.498 312.962 509.654 307.334C521.117 298.303 569.402 264.121 616.297 239.805C639.988 227.508 661.734 218.476 677.713 215.767C685.772 214.377 690.357 214.933 692.511 215.767C693.483 216.184 694.109 216.392 694.734 218.754C696.888 227.578 705.85 232.997 714.673 230.773C723.496 228.62 728.967 217.369 726.744 208.546Z" fill="url(#paint0_linear_492_30777)"/>
<defs>
<linearGradient id="paint0_linear_492_30777" x1="296.052" y1="243.921" x2="706.088" y2="200.454" gradientUnits="userSpaceOnUse">
<stop stop-color="#011A40"/>
<stop offset="0.52" stop-color="#023074"/>
<stop offset="1" stop-color="#011A40"/>
</linearGradient>
</defs>
</svg>
